<?xml version="1.0" standalone="no"?>
<!DOCTYPE svg PUBLIC "-//W3C//DTD SVG 1.1//EN" "http://www.w3.org/Graphics/SVG/1.1/DTD/svg11.dtd" >
<svg xmlns="http://www.w3.org/2000/svg">
<metadata></metadata>
<defs>
<font id="kalingaregular" horiz-adv-x="1142" >
<font-face units-per-em="2048" ascent="1638" descent="-410" />
<missing-glyph horiz-adv-x="556" />
<glyph horiz-adv-x="2048" />
<glyph horiz-adv-x="2048" />
<glyph unicode="&#xd;" horiz-adv-x="0" d="M0 0z" />
<glyph unicode=" " horiz-adv-x="556" d="M0 0z" />
<glyph unicode="!" horiz-adv-x="619" d="M230 0v175h157v-175h-157zM232 1454h158l-22 -1057h-114z" />
<glyph unicode="&#x22;" horiz-adv-x="792" d="M143 1454h151l-19 -388h-110zM498 1454h151l-19 -388h-110z" />
<glyph unicode="#" horiz-adv-x="1195" d="M40 431v95h231l86 400h-264v91h284l90 433h93l-90 -433h399l93 433h95l-93 -433h218v-91h-240l-84 -400h271v-95h-291l-90 -431h-95l91 431h-400l-90 -431h-93l91 431h-212zM365 526h400l84 400h-399z" />
<glyph unicode="$" horiz-adv-x="1198" d="M46 379l137 33q12 -59 38.5 -108t71.5 -85t111 -57t156 -25v565q-7 1 -16 4q-9 2 -15 3q-76 20 -150.5 46.5t-133 69t-94.5 107t-36 161.5q0 85 33.5 147.5t93 103.5t141 62t177.5 25v130h77v-130q106 -4 183 -26.5t130.5 -62.5t87.5 -97.5t53 -132.5l-138 -31 q-11 53 -35 95t-61.5 72t-91.5 47.5t-128 21.5v-508q8 -1 14 -1t12 -3q84 -21 165 -47.5t146.5 -71t105.5 -114t40 -177.5q0 -78 -29 -143.5t-88.5 -115.5t-150.5 -80t-215 -35v-163h-77v163q-225 6 -350.5 99t-163.5 259zM250 1096q0 -63 24.5 -106t67 -72.5t99 -49 t119.5 -37.5v489q-85 -4 -144 -22t-95.5 -48t-53.5 -69t-17 -85zM637 137q76 4 139.5 20t110 47t72 78t25.5 111q0 74 -28 121.5t-75.5 78.5t-110.5 51t-133 37v-544z" />
<glyph unicode="%" horiz-adv-x="1910" d="M121 1004q0 136 24 225t66 142t98.5 74.5t123.5 21.5q65 0 121 -21.5t97.5 -74.5t65 -142t23.5 -225q0 -129 -24.5 -218t-66 -143.5t-98.5 -78t-121 -23.5q-66 0 -122 23t-97.5 77t-65.5 143t-24 220zM240 1004q0 -102 13 -173t37.5 -115t60 -63.5t80.5 -19.5 q42 0 76.5 19.5t59.5 63.5t38.5 115t13.5 173q0 107 -12 178.5t-36 114t-58 60.5t-80 18t-82 -18t-60.5 -61t-37.5 -114t-13 -178zM410 0l972 1454h118l-971 -1454h-119zM1169 450q0 136 23.5 225.5t66.5 142.5t100 74t124 21q65 0 120.5 -21t97.5 -74t66 -142.5t24 -225.5 q0 -130 -24 -218.5t-66.5 -142.5t-99.5 -78t-123 -24q-65 0 -121.5 23.5t-98.5 77.5t-65.5 142.5t-23.5 219.5zM1289 450q0 -103 13 -174t38 -114t60.5 -62.5t79.5 -19.5q42 0 77 19.5t60 62.5t38.5 114t13.5 174q0 107 -13 178.5t-36.5 115t-58 61.5t-78.5 18 q-46 0 -82 -18t-61 -62t-38 -115t-13 -178z" />
<glyph unicode="&#x26;" horiz-adv-x="1450" d="M116 374q0 83 27 150t75.5 121.5t114.5 98t144 76.5q-18 37 -34 77.5t-29 82.5t-20 83t-7 79q0 68 20.5 126.5t63 102t108.5 68t156 24.5q73 0 133.5 -19.5t105.5 -56t70 -90t25 -122.5q0 -79 -38 -137.5t-100 -105.5t-140.5 -84.5t-160.5 -73.5q68 -128 152 -246 t178 -230q68 99 112.5 209t76.5 245l119 -32q-37 -152 -92 -273t-130 -228q60 -63 114.5 -90.5t107.5 -27.5q65 0 123 18v-109q-29 -10 -62.5 -16.5t-72.5 -6.5q-47 0 -90.5 11.5t-81.5 31.5t-69.5 46.5t-57.5 55.5q-28 -28 -68 -55t-89 -49t-108 -35.5t-127 -13.5 q-116 0 -201 31t-140 84.5t-81.5 125.5t-26.5 154zM250 379q0 -60 20 -113.5t59.5 -93t99.5 -63t141 -23.5q50 0 95.5 11t84 28.5t70 40t55.5 46.5q-98 116 -188 243.5t-163 263.5q-131 -55 -202.5 -138.5t-71.5 -201.5zM508 1142q0 -66 22.5 -138.5t56.5 -136.5 q73 30 137.5 60t114 66t77.5 80.5t28 101.5q0 83 -57.5 134.5t-152.5 51.5q-110 0 -168 -58t-58 -161z" />
<glyph unicode="'" horiz-adv-x="437" d="M143 1454h151l-19 -388h-110z" />
<glyph unicode="(" horiz-adv-x="722" d="M163 519q0 149 22.5 277t68 246t115.5 230t164 228h146q-100 -121 -171 -237t-116 -235t-66.5 -244.5t-21.5 -267.5t21.5 -267.5t66.5 -244.5t116 -235t171 -239h-146q-94 117 -164 230.5t-115.5 232t-68 248t-22.5 278.5z" />
<glyph unicode=")" horiz-adv-x="722" d="M44 -470q99 123 170 239t117 235t67 244.5t21 267.5t-21 267.5t-67 244.5t-117 235t-170 237h146q94 -116 163.5 -228t115.5 -230t68.5 -246t22.5 -277t-22.5 -278.5t-68.5 -248t-115.5 -232t-163.5 -230.5h-146z" />
<glyph unicode="*" horiz-adv-x="867" d="M57 1146l40 112l290 -110l-13 306h120l-14 -305l286 104l42 -107l-310 -79l197 -256l-99 -60l-163 262l-171 -261l-99 59l201 256z" />
<glyph unicode="+" d="M72 645v116h440v441h115v-441h440v-116h-440v-441h-115v441h-440z" />
<glyph unicode="," horiz-adv-x="448" d="M137 -244q81 125 81 244h-72v186h158v-140q0 -49 -3.5 -88t-12.5 -73.5t-22 -65.5t-31 -63h-98z" />
<glyph unicode="-" horiz-adv-x="688" d="M90 466v124h506v-124h-506z" />
<glyph unicode="." horiz-adv-x="448" d="M144 0v186h159v-186h-159z" />
<glyph unicode="/" horiz-adv-x="841" d="M21 0l658 1503h138l-652 -1503h-144z" />
<glyph unicode="0" d="M83 728q0 219 37 363.5t103 229.5t156.5 120t195.5 35q101 0 189.5 -35t153.5 -120t103 -229.5t38 -363.5q0 -211 -38.5 -354t-105 -231t-156 -126t-190.5 -38q-103 0 -192 38t-154.5 126t-102.5 231t-37 354zM224 728q0 -176 24 -296.5t68.5 -195.5t108.5 -107t145 -32 q78 0 141.5 33t109.5 107.5t70.5 194.5t24.5 296q0 181 -23.5 303t-68 195t-107.5 103.5t-144 30.5q-83 0 -147.5 -31t-109 -104t-68.5 -194.5t-24 -302.5z" />
<glyph unicode="1" d="M157 0v116h390v1201l-348 -222v123l363 236h126v-1338h332v-116h-863z" />
<glyph unicode="2" d="M101 0v101q43 103 117.5 192t159.5 169t172 154q86 74 155.5 147.5t114 151t44.5 162.5q0 72 -22 125.5t-62 88.5t-95 52t-123 17q-121 0 -203 -67.5t-97 -197.5l-143 14q9 77 40.5 143t86.5 116t135 79t184 29q102 0 184.5 -26t140.5 -75t89 -122t31 -168 q0 -78 -26 -147t-69.5 -132t-101 -121t-120 -113.5t-125.5 -109.5q-64 -54 -120.5 -109t-101.5 -111t-71 -117h756v-125h-930z" />
<glyph unicode="3" d="M86 364l146 15q9 -63 32.5 -114.5t65.5 -89t102.5 -58t142.5 -20.5q75 0 135 19t102.5 58t66 95.5t23.5 131.5q0 88 -38 141.5t-95 82.5t-123 38.5t-122 9.5h-103v129h99q55 0 116 12.5t111 44t83 85.5t33 137q0 129 -75.5 204t-225.5 75q-134 0 -216 -70t-96 -195 l-140 12q11 94 50.5 163t99.5 115t138 68.5t167 22.5q116 0 199.5 -30.5t137.5 -82t79 -121t25 -149.5q0 -65 -17.5 -121.5t-54 -101t-93.5 -77t-137 -47.5v-4q88 -9 152 -39.5t106.5 -76.5t63 -103t20.5 -122q0 -202 -123 -312t-348 -110q-130 0 -219 32.5t-146.5 86.5 t-86 123t-37.5 143z" />
<glyph unicode="4" d="M57 347v107l677 1000h147v-993h195v-114h-195v-347h-139v347h-685zM186 461h556v816z" />
<glyph unicode="5" d="M90 308l142 21q12 -44 34.5 -86t61 -75t96 -53t138.5 -20q77 0 140.5 24.5t109 72t70.5 116.5t25 158q0 72 -23.5 132.5t-68 104t-107 68t-142.5 24.5q-102 0 -172 -32t-123 -75h-138l46 766h787v-119h-655l-32 -517q51 40 126.5 67.5t181.5 27.5t191.5 -32t145.5 -91 t93 -140.5t33 -179.5q0 -110 -31.5 -200.5t-93.5 -155t-153.5 -100t-212.5 -35.5q-111 0 -192.5 26t-137.5 70.5t-89.5 104.5t-49.5 128z" />
<glyph unicode="6" d="M112 694q0 194 34.5 340t99.5 244t157 148t208 50q68 0 129 -14.5t112 -47t89.5 -86t62.5 -133.5l-133 -29q-33 103 -102 148.5t-158 45.5q-81 0 -147.5 -39.5t-113.5 -117.5t-72.5 -195.5t-25.5 -272.5q50 101 144.5 154t216.5 53q98 0 178 -32.5t137.5 -93t89 -147 t31.5 -193.5q0 -110 -30 -201.5t-88 -157t-142.5 -102t-195.5 -36.5q-122 0 -213 50t-150.5 142.5t-88.5 225t-29 297.5zM271 520q0 -89 22 -166.5t64 -134t101 -89.5t133 -33q148 0 231.5 97.5t83.5 272.5q0 83 -21 150t-61.5 114.5t-100.5 73.5t-137 26q-55 0 -111 -16 t-101.5 -53t-74 -96.5t-28.5 -145.5z" />
<glyph unicode="7" d="M115 1329v125h918v-120q-104 -154 -194 -315.5t-157 -329.5t-105 -340t-38 -349h-146q0 175 39.5 347.5t107.5 340t158.5 328t195.5 313.5h-779z" />
<glyph unicode="8" d="M95 401q0 80 24.5 142t64.5 108t92 73.5t107 36.5v4q-61 14 -108 46.5t-79.5 77.5t-49.5 101t-17 117q0 76 28.5 143t84 117.5t137.5 79.5t190 29q112 0 196 -30t138.5 -80t82 -117t27.5 -143q0 -61 -17 -116.5t-50 -100.5t-80.5 -77t-109.5 -46v-4q62 -10 115 -37.5 t93 -73t62.5 -107.5t22.5 -140q0 -92 -28.5 -170t-86.5 -134.5t-147.5 -88.5t-213.5 -32q-123 0 -213 32t-149 88.5t-87.5 134t-28.5 167.5zM240 412q0 -71 18.5 -130.5t59.5 -102t104.5 -66.5t152.5 -24q91 0 153.5 23t101 66.5t55.5 103.5t17 133q0 57 -16.5 110t-55 94 t-102.5 65.5t-159 24.5q-87 0 -149.5 -24.5t-102.5 -65.5t-58.5 -94.5t-18.5 -112.5zM275 1099q0 -46 12 -95t45 -90t90.5 -67.5t147.5 -26.5q97 0 155.5 26.5t89.5 67.5t41.5 90t10.5 95q0 59 -16 108t-51.5 84.5t-92.5 55.5t-138 20q-79 0 -135 -20t-91.5 -55.5 t-51.5 -84.5t-16 -108z" />
<glyph unicode="9" d="M103 987q0 111 31.5 201t91 154t146.5 99t197 35q236 0 354.5 -180.5t118.5 -536.5q0 -195 -36 -341t-103 -243.5t-160.5 -146.5t-209.5 -49q-154 0 -253 66t-145 219l136 26q31 -102 96.5 -148.5t166.5 -46.5q81 0 148 39t115.5 116.5t75 194t27.5 271.5 q-22 -53 -60.5 -94.5t-87.5 -70.5t-105.5 -43.5t-117.5 -14.5q-98 0 -177 36t-134 101t-85 156t-30 201zM248 987q0 -81 19 -150t58 -121t97.5 -81t137.5 -29q54 0 111.5 19.5t104.5 59.5t77.5 100t30.5 143q0 89 -21 167t-61.5 136t-100.5 92t-139 34q-73 0 -131 -26 t-98.5 -73.5t-62.5 -116.5t-22 -154z" />
<glyph unicode=":" horiz-adv-x="448" d="M144 0v179h159v-179h-159zM144 858v180h159v-180h-159z" />
<glyph unicode=";" horiz-adv-x="448" d="M137 -244q81 125 81 244h-72v179h158v-133q0 -49 -3.5 -88t-12.5 -73.5t-22 -65.5t-31 -63h-98zM146 858v180h158v-180h-158z" />
<glyph unicode="&#x3c;" d="M75 615v156l994 447v-125l-883 -399l883 -397v-125z" />
<glyph unicode="=" d="M72 381v116h995v-116h-995zM72 891v118h995v-118h-995z" />
<glyph unicode="&#x3e;" d="M72 172v125l885 397l-885 399v125l995 -447v-156z" />
<glyph unicode="?" horiz-adv-x="1178" d="M97 1059q11 85 48.5 161t101.5 133t153 90t202 33q114 0 203 -28.5t151 -82t94 -128.5t32 -168q0 -72 -20 -126t-52.5 -96t-74.5 -75.5t-86 -62.5q-44 -30 -86 -60.5t-75.5 -66.5t-53.5 -80.5t-21 -104.5h-137q1 93 36.5 155.5t87 110.5t111.5 87q59 38 110 81.5t85 98 t34 133.5q0 67 -23 121t-67 93t-106.5 59.5t-141.5 20.5q-73 0 -135.5 -23t-109.5 -65t-77 -98t-36 -122zM470 0v175h157v-175h-157z" />
<glyph unicode="@" horiz-adv-x="1910" d="M70 476q0 143 32 274.5t92.5 246t147 207t197 158.5t241.5 102t279 36q205 0 354.5 -60.5t248 -163.5t145.5 -240t47 -288q0 -148 -36.5 -271.5t-99.5 -212.5t-146 -138.5t-179 -49.5q-78 0 -128.5 43.5t-50.5 134.5q0 17 1 44t7 49h-7q-20 -46 -59.5 -94.5t-91 -88 t-115 -64t-132.5 -24.5q-101 0 -167 37t-104.5 94t-54 127.5t-15.5 138.5q0 118 35 231.5t101.5 202.5t163 144t220.5 55q119 0 200 -56.5t119 -151.5h9l43 184h104l-120 -522q-21 -89 -32.5 -164.5t-11.5 -120.5q0 -35 9 -56.5t23 -33t30 -16t32 -4.5q67 0 130 42.5 t112 118.5t79 183.5t30 236.5q0 142 -44.5 262.5t-132.5 209.5t-217 139t-298 50q-144 0 -265.5 -34t-220 -96.5t-173.5 -148.5t-124.5 -189.5t-75.5 -221t-26 -241.5q0 -143 42 -270t129 -222.5t220 -151.5t315 -56q93 0 179 12.5t164.5 35t150.5 53t138 64.5l40 -76 q-62 -35 -133 -68t-154 -58t-180.5 -40.5t-210.5 -15.5q-198 0 -349 63t-252 171t-152.5 252t-51.5 307zM586 476q0 -71 15.5 -127.5t46.5 -96.5t78.5 -61.5t111.5 -21.5q61 0 122.5 27.5t115.5 80t98 126t67 166.5q6 21 11.5 45.5t10 49t7 47.5t2.5 40q0 58 -21.5 106.5 t-60 83t-91.5 54t-116 19.5q-102 0 -177 -49.5t-124 -128.5t-72.5 -173.5t-23.5 -186.5z" />
<glyph unicode="A" horiz-adv-x="1311" d="M4 0l565 1454h175l564 -1454h-156l-172 450h-651l-170 -450h-155zM372 570h568l-194 511q-17 44 -33 88.5t-28.5 80t-19.5 58.5q-8 23 -10 26q-1 -5 -8.5 -29t-20 -59.5t-28 -78.5t-32.5 -86z" />
<glyph unicode="B" horiz-adv-x="1410" d="M199 0v1454h505q118 0 210.5 -20t157 -62.5t99 -109t34.5 -159.5q0 -61 -17.5 -115.5t-51.5 -98.5t-86.5 -75.5t-121.5 -47.5q87 -9 155 -40t113.5 -78t69 -107.5t23.5 -130.5q0 -111 -42.5 -189t-114.5 -127t-167.5 -71.5t-199.5 -22.5h-566zM347 116h395 q82 0 154.5 15.5t126 51.5t84.5 93.5t31 142.5q0 72 -30 126t-83.5 89.5t-128 52.5t-166.5 17h-383v-588zM347 817h352q93 0 160 20t109.5 55.5t63.5 85.5t21 111q0 129 -88.5 187.5t-266.5 58.5h-351v-518z" />
<glyph unicode="C" horiz-adv-x="1482" d="M132 734q0 170 40.5 307.5t123 233.5t205.5 148.5t290 52.5q125 0 218 -29t159.5 -77t111.5 -107t74 -120l-132 -50q-24 49 -60.5 95.5t-89 82.5t-122 58t-158.5 22q-133 0 -229 -44t-158.5 -124.5t-92 -195t-29.5 -253.5t32.5 -254.5t97 -199.5t162 -130.5t226.5 -46.5 q93 0 167 27t130.5 70.5t96.5 97.5t64 108l125 -58q-36 -69 -88 -135.5t-123 -118t-163.5 -83.5t-208.5 -32q-170 0 -296 56.5t-209 157t-123.5 239t-40.5 302.5z" />
<glyph unicode="D" horiz-adv-x="1566" d="M199 0v1454h464q169 0 310.5 -41.5t244 -128.5t159 -221.5t56.5 -320.5q0 -182 -54 -320t-149.5 -232.5t-224 -142t-277.5 -47.5h-529zM347 125h359q125 0 230.5 39.5t182.5 117t120 193t43 267.5q0 157 -45.5 268.5t-128 182.5t-197.5 103.5t-253 32.5h-311v-1204z" />
<glyph unicode="E" horiz-adv-x="1300" d="M199 0v1454h959v-123h-811v-523h748v-120h-748v-565h853v-123h-1001z" />
<glyph unicode="F" horiz-adv-x="1196" d="M199 0v1454h900v-125h-752v-589h724v-125h-724v-615h-148z" />
<glyph unicode="G" horiz-adv-x="1543" d="M132 734q0 170 40.5 307.5t123 233.5t205.5 148.5t290 52.5q122 0 213.5 -28t159 -73.5t113 -104.5t76.5 -121l-135 -47q-25 50 -61.5 95t-88 79.5t-120 54.5t-157.5 20q-133 0 -229 -44t-158 -124.5t-91.5 -195t-29.5 -253.5t32.5 -254.5t97 -199.5t162 -130.5 t226.5 -46.5q83 0 152 16t125 41.5t98 56.5t69 62v314h-437v116h576v-487q-44 -49 -102.5 -93.5t-131.5 -77.5t-160.5 -52.5t-188.5 -19.5q-170 0 -296 56.5t-209 157t-123.5 239t-40.5 302.5z" />
<glyph unicode="H" horiz-adv-x="1589" d="M199 0v1454h148v-630h898v630h148v-1454h-148v698h-898v-698h-148z" />
<glyph unicode="I" horiz-adv-x="544" d="M199 0v1454h148v-1454h-148z" />
<glyph unicode="J" horiz-adv-x="1067" d="M61 338l144 27q13 -70 38 -119.5t60 -81t79 -46.5t94 -15q125 0 188.5 80.5t63.5 231.5v914h-278v125h425v-1033q0 -101 -26 -182.5t-76.5 -139.5t-126 -89t-174.5 -31q-169 0 -271.5 86t-139.5 273z" />
<glyph unicode="K" horiz-adv-x="1307" d="M199 0v1454h148v-695l682 695h177l-607 -609l696 -845h-179l-613 751l-156 -160v-591h-148z" />
<glyph unicode="L" horiz-adv-x="1125" d="M199 0v1454h148v-1329h713v-125h-861z" />
<glyph unicode="M" horiz-adv-x="1883" d="M199 0v1454h196l478 -1090q3 -5 14 -35q11 -31 24 -66q14 -41 33 -91q23 54 42 96q15 38 28 70q13 31 15 36l460 1080h196v-1454h-136v1020q0 53 2 102q1 49 2 87q1 44 3 84l-34 -88q-14 -38 -32 -83t-36 -84l-441 -1038h-133l-450 1038q-15 31 -32 75q-17 43 -33 83 q-18 46 -37 97l4 -96q1 -41 1.5 -88t0.5 -89v-1020h-135z" />
<glyph unicode="N" horiz-adv-x="1650" d="M199 0v1454h169l957 -1285q-1 43 -4 89q-3 40 -3.5 90.5t-0.5 102.5v1003h136v-1454h-176l-949 1277q2 -44 4 -90q1 -40 1.5 -86t0.5 -87v-1014h-135z" />
<glyph unicode="O" horiz-adv-x="1633" d="M132 734q0 170 45 307.5t132 233.5t214.5 148.5t293.5 52.5q165 0 293 -53t215.5 -150t132.5 -233.5t45 -305.5q0 -170 -47 -309.5t-135.5 -238t-215.5 -153t-288 -54.5q-171 0 -299 56.5t-214 157t-129 239t-43 302.5zM283 734q0 -139 34.5 -254.5t102.5 -199.5 t167 -130.5t230 -46.5q138 0 238.5 47t165.5 131t96.5 200t31.5 253q0 139 -34 253.5t-101.5 195t-167 124.5t-229.5 44q-133 0 -233 -44t-167 -124.5t-100.5 -195t-33.5 -253.5z" />
<glyph unicode="P" horiz-adv-x="1331" d="M199 0v1454h516q125 0 219 -31t157.5 -87t95 -135.5t31.5 -176.5q0 -89 -30.5 -169.5t-91.5 -141t-153.5 -97t-214.5 -36.5h-381v-580h-148zM347 698h359q93 0 161 24.5t112.5 68.5t66 103t21.5 129q0 148 -92.5 230t-276.5 82h-351v-637z" />
<glyph unicode="Q" horiz-adv-x="1633" d="M132 734q0 170 45 307.5t132 233.5t214.5 148.5t293.5 52.5q165 0 293 -53t215.5 -150t132.5 -233.5t45 -305.5q0 -156 -39.5 -286.5t-113.5 -227t-181 -156t-243 -74.5q43 -138 111.5 -201.5t180.5 -63.5q26 0 58 4t55 9v-110q-29 -9 -70 -14t-82 -5q-84 0 -147 24 t-111.5 71.5t-84 117.5t-62.5 161q-160 5 -280.5 63t-200.5 158t-120.5 235t-40.5 295zM283 734q0 -139 34.5 -254.5t102.5 -199.5t167 -130.5t230 -46.5q138 0 238.5 47t165.5 131t96.5 200t31.5 253q0 139 -34 253.5t-101.5 195t-167 124.5t-229.5 44q-133 0 -233 -44 t-167 -124.5t-100.5 -195t-33.5 -253.5z" />
<glyph unicode="R" horiz-adv-x="1353" d="M199 0v1454h516q118 0 211.5 -28t158 -80t99 -127.5t34.5 -172.5q0 -68 -21.5 -134.5t-66.5 -122t-116 -94t-170 -53.5l423 -642h-176l-396 623h-348v-623h-148zM347 740h362q93 0 161 24t111 64.5t64.5 97t21.5 119.5q0 71 -25 125t-73 91t-115 55.5t-152 18.5h-355 v-595z" />
<glyph unicode="S" horiz-adv-x="1367" d="M119 337l145 32q15 -59 44 -108t80 -85.5t125 -56.5t176 -20q85 0 158.5 16.5t127 51t84 89.5t30.5 131q0 81 -39 132.5t-101.5 84.5t-140.5 54t-155 40q-56 14 -112 29.5t-107.5 37t-96 49t-78 67t-52.5 92.5t-19 122q0 101 38 173t106 118t159.5 68t199.5 22 q123 0 210 -21t148.5 -61.5t99 -101t57.5 -139.5l-147 -31q-13 57 -40 101t-71.5 74t-107.5 46.5t-151 16.5q-98 0 -166.5 -20t-109.5 -55t-60 -82t-19 -101q0 -70 31.5 -116t85 -77t124.5 -52t150 -40l122 -32t118 -37.5t106 -50.5t85.5 -71t58 -98.5t21.5 -134.5 q0 -89 -33.5 -164t-101.5 -130.5t-171 -87.5t-242 -32q-249 0 -390.5 93t-178.5 265z" />
<glyph unicode="T" horiz-adv-x="1220" d="M26 1329v125h1172v-125h-510v-1329h-151v1329h-511z" />
<glyph unicode="U" horiz-adv-x="1533" d="M188 520v934h149v-920q0 -113 32.5 -194.5t89.5 -133.5t133 -77.5t163 -25.5q85 0 164 26.5t140.5 80.5t99 138t37.5 199v907h148v-913q0 -144 -46.5 -249.5t-126.5 -174.5t-188 -103.5t-232 -34.5q-118 0 -221 32t-178.5 98t-119.5 168t-44 243z" />
<glyph unicode="V" horiz-adv-x="1277" d="M13 1454h160l374 -1046q17 -47 33 -96.5t29 -90.5q14 -48 28 -95q14 44 30 92q14 41 30 91t34 99l371 1046h160l-543 -1454h-160z" />
<glyph unicode="W" horiz-adv-x="2039" d="M13 1454h156l294 -964q21 -66 37.5 -129.5t29.5 -114.5l29 -113q16 70 33 137q14 58 31.5 120.5t31.5 110.5l292 953h146l292 -953q15 -46 32 -109t32 -121q16 -68 34 -138q2 0 11 36t23 90t31.5 117t33.5 114l288 964h159l-453 -1454h-170l-307 998q-12 40 -26 92.5 t-26 101.5q-14 57 -28 115q-13 -58 -27 -115q-12 -49 -25.5 -102t-26.5 -92l-304 -998h-170z" />
<glyph unicode="X" horiz-adv-x="1249" d="M21 0l520 765l-478 689h163l400 -596l397 596h163l-467 -689l509 -765h-162l-440 662l-443 -662h-162z" />
<glyph unicode="Y" horiz-adv-x="1214" d="M10 1454h163l433 -692l434 692h162l-522 -817v-637h-147v637z" />
<glyph unicode="Z" horiz-adv-x="1293" d="M76 0v116l930 1213h-856v125h1029v-115l-929 -1214h965v-125h-1139z" />
<glyph unicode="[" horiz-adv-x="648" d="M192 -470v1970h423v-103h-287v-1761h287v-106h-423z" />
<glyph unicode="\" horiz-adv-x="841" d="M23 1503h138l657 -1503h-142z" />
<glyph unicode="]" horiz-adv-x="648" d="M32 -364h287v1761h-287v103h422v-1970h-422v106z" />
<glyph unicode="^" d="M49 512l444 942h156l446 -942h-125l-400 853l-397 -853h-124z" />
<glyph unicode="_" horiz-adv-x="1057" d="M-21 -182h1098v-76h-1098v76z" />
<glyph unicode="`" horiz-adv-x="613" d="M126 1464v25h162l238 -294v-20h-93z" />
<glyph unicode="a" horiz-adv-x="1225" d="M116 279q0 94 40.5 159t109.5 105.5t160 60t193 20.5l269 4v57q0 150 -73 215t-210 65q-66 0 -117.5 -11t-89 -35.5t-60 -64t-30.5 -95.5l-145 15q10 64 41.5 119t85.5 94.5t133 61.5t183 22q207 0 315 -96.5t108 -279.5v-431q0 -86 21.5 -130t82.5 -44q15 0 34 4t33 7 v-97q-29 -8 -59 -11t-59 -3q-51 0 -86.5 14.5t-57.5 43.5t-33 72.5t-14 98.5h-3q-60 -108 -164.5 -174t-250.5 -66q-82 0 -148.5 20t-113 59t-71 94.5t-24.5 126.5zM262 285q0 -89 55 -139.5t174 -50.5q92 0 165.5 32t125 81.5t79 111t27.5 120.5v89l-240 -7 q-78 -1 -148 -12t-123 -37.5t-84 -72t-31 -115.5z" />
<glyph unicode="b" horiz-adv-x="1277" d="M169 0q0 5 0.5 25.5t1.5 51.5q1 30 1.5 68.5t0.5 78.5v1275h142v-475v-61t-2 -56q-1 -30 -2 -56h4q59 107 157 163.5t250 56.5q114 0 197 -41.5t138 -113.5t82 -171t27 -215q0 -117 -27.5 -218.5t-85 -175t-145.5 -115.5t-206 -42q-133 0 -234.5 57t-152.5 157h-3 q0 -28 -1 -61t-3 -61t-3.5 -48t-2.5 -23h-133zM311 522q0 -120 29 -203t77.5 -134t113 -73.5t135.5 -22.5q172 0 263 114t91 327q0 101 -21 180t-65 135.5t-110.5 86t-155.5 29.5q-71 0 -135.5 -22.5t-113.5 -74t-78.5 -135.5t-29.5 -207z" />
<glyph unicode="c" horiz-adv-x="1164" d="M110 519q0 129 34 231.5t99 173.5t158.5 109t213.5 38q98 0 175 -24.5t132 -67t89.5 -100t47.5 -123.5l-143 -14q-19 96 -94.5 159t-210.5 63q-87 0 -154 -30t-113 -86t-69 -136t-23 -182q0 -217 95 -329t266 -112q136 0 213 64.5t99 174.5l135 -25q-14 -64 -48 -123 t-90 -103.5t-133.5 -71t-178.5 -26.5q-126 0 -220.5 40t-156 112t-92.5 171t-31 217z" />
<glyph unicode="d" horiz-adv-x="1277" d="M110 522q0 119 28 219t86.5 173.5t146 115t204.5 41.5q137 0 236.5 -57.5t150.5 -155.5h2v20.5t-1 42.5q-1 25 -1 56.5v62.5v459h141v-1275q0 -40 0.5 -78.5t1.5 -68.5q1 -31 1.5 -51.5t0.5 -25.5h-133q0 3 -2 24q-2 20 -4 49.5t-3 64t-1 63.5h-2q-59 -107 -156.5 -164.5 t-250.5 -57.5q-114 0 -198 41.5t-138.5 114.5t-81.5 172t-27 215zM255 522q0 -100 21.5 -180t65.5 -136t110.5 -86.5t156.5 -30.5q71 0 135.5 23t114 75.5t78.5 136.5t29 206q0 120 -29 203.5t-77.5 134t-113 73.5t-135.5 23q-172 0 -264 -114.5t-92 -327.5z" />
<glyph unicode="e" horiz-adv-x="1200" d="M110 533q0 151 43.5 254t114.5 166.5t161.5 90.5t183.5 27q125 0 216 -40t149.5 -112.5t86.5 -171.5t28 -218v-32h-838q0 -87 21.5 -162.5t66.5 -130t114 -86.5t165 -32q122 0 205.5 53t116.5 142l132 -23q-17 -44 -50 -93.5t-87 -90t-132.5 -68t-189.5 -27.5 q-116 0 -210 35.5t-159.5 106t-101.5 173.5t-36 239zM258 601h695q-6 84 -28.5 151t-64 114t-102.5 72.5t-145 25.5q-67 0 -129.5 -19.5t-111 -63t-79.5 -112.5t-35 -168z" />
<glyph unicode="f" horiz-adv-x="580" d="M46 942v111h155v162q0 60 10 111.5t37 90t75.5 60.5t124.5 22q29 0 59 -3t52 -7v-109q-17 3 -39.5 5.5t-42.5 2.5q-42 0 -68.5 -13t-42 -36t-20.5 -57.5t-5 -76.5v-152h218v-111h-218v-942h-140v942h-155z" />
<glyph unicode="g" horiz-adv-x="1277" d="M110 526q0 119 28 218.5t86.5 172t146 113.5t204.5 41q137 0 236.5 -57.5t150.5 -155.5h2q0 28 1 61t3 62t4 49t2 23h133q0 -6 -0.5 -26.5t-1.5 -50.5t-1.5 -68.5t-0.5 -79.5v-798q0 -243 -127 -371.5t-367 -128.5q-102 0 -179.5 19t-133.5 54t-91.5 83t-52.5 109l140 23 q27 -82 107 -132t212 -50q82 0 146.5 24t110 71.5t70 120.5t24.5 171q0 26 1 58q1 31 1 60v67h-2q-59 -109 -156.5 -165t-250.5 -56q-114 0 -198 40.5t-138.5 113t-81.5 171t-27 214.5zM255 526q0 -99 21.5 -178.5t65.5 -135.5t110.5 -86.5t156.5 -30.5q71 0 135.5 23 t114 74.5t78.5 135.5t29 205q0 118 -29 200t-77.5 133.5t-113 74.5t-135.5 23q-172 0 -264 -113.5t-92 -324.5z" />
<glyph unicode="h" horiz-adv-x="1251" d="M173 0v1500h142v-454q0 -35 -1 -71q-2 -37 -3 -67q-1 -31 -2 -52q-2 -21 -2 -25h4q66 122 161.5 181t229.5 59q102 0 174.5 -29t119 -81.5t68.5 -126.5t22 -166v-668h-139v633q0 74 -16 134.5t-51.5 104t-92 67t-134.5 23.5q-74 0 -136 -29t-107 -79t-70 -118t-25 -146 v-590h-142z" />
<glyph unicode="i" horiz-adv-x="488" d="M173 0v1053h142v-1053h-142zM173 1338v162h142v-162h-142z" />
<glyph unicode="j" horiz-adv-x="488" d="M-17 -357q11 -3 34.5 -5t34.5 -2q38 0 61.5 13.5t37 39t18 62t4.5 84.5v1218h142v-1225q0 -61 -8.5 -116t-33 -95t-69 -63.5t-115.5 -23.5q-26 0 -55 2t-51 5v106zM173 1338v162h142v-162h-142z" />
<glyph unicode="k" horiz-adv-x="1076" d="M173 0v1500h142v-966l543 519h171l-470 -440l500 -613h-169l-429 522l-146 -132v-390h-142z" />
<glyph unicode="l" horiz-adv-x="488" d="M173 0v1500h142v-1500h-142z" />
<glyph unicode="m" horiz-adv-x="1947" d="M169 1053h129q0 -4 2 -32q1 -29 2.5 -64.5l3 -71t1.5 -54.5h4q62 122 153 181t220 59q75 0 132 -19t99 -52.5t70 -80t42 -102.5h4q62 123 157.5 188.5t227.5 65.5q102 0 172 -33.5t113 -91t61.5 -134.5t18.5 -163v-649h-139v617q0 74 -14 137.5t-46.5 110t-84.5 72 t-130 25.5q-68 0 -126.5 -28t-101.5 -78t-66.5 -117.5t-23.5 -145.5v-593h-140v617q0 74 -14 137.5t-47 110t-85 72t-130 25.5q-68 0 -126.5 -29t-101.5 -79t-66.5 -118t-23.5 -146v-590h-142v817q0 34 -0.5 73.5t-1.5 73.5t-1.5 58.5t-0.5 30.5z" />
<glyph unicode="n" horiz-adv-x="1251" d="M169 1053h129q0 -4 2 -32q1 -29 2.5 -64.5l3 -71t1.5 -54.5h4q66 122 161.5 181t229.5 59q107 0 180.5 -33.5t118.5 -91t65 -134.5t20 -163v-649h-139v617q0 74 -15.5 137.5t-50.5 110t-91 72t-137 25.5q-74 0 -136 -29t-107 -79t-70 -118t-25 -146v-590h-142v817 q0 34 -0.5 73.5t-1.5 73.5t-1.5 58.5t-0.5 30.5z" />
<glyph unicode="o" horiz-adv-x="1253" d="M110 526q0 118 31.5 217t95.5 172t161 114.5t229 41.5q139 0 238 -41t160.5 -113.5t91 -172t29.5 -218.5q0 -120 -33 -220t-99 -172.5t-164 -113.5t-228 -41q-124 0 -220 40t-160.5 113t-98 173.5t-33.5 220.5zM255 526q0 -112 26.5 -194t75 -136t115 -80.5t147.5 -26.5 q181 0 280 106t99 331t-92.5 331.5t-273.5 106.5q-182 0 -279.5 -109t-97.5 -329z" />
<glyph unicode="p" horiz-adv-x="1277" d="M169 1053h133q1 -3 2.5 -23.5t2.5 -50.5q1 -31 3 -65q1 -34 1 -63h4q60 107 157.5 164.5t249.5 57.5q115 0 199 -41t139 -114t82 -172.5t27 -215.5q0 -117 -28.5 -218.5t-86.5 -175t-146 -115.5t-206 -42q-133 0 -233.5 57t-153.5 157h-4q0 -1 1 -19q0 -18 1 -46 q0 -29 1 -62q1 -34 1 -66v-470h-142v1298q0 41 -0.5 79.5t-1.5 68.5t-1.5 50.5t-0.5 26.5zM311 522q0 -120 29 -203t77.5 -134t113 -73.5t135.5 -22.5q172 0 264.5 114t92.5 327q0 101 -22 181t-66 136t-111 86.5t-156 30.5q-71 0 -135.5 -23.5t-113.5 -75.5t-78.5 -136 t-29.5 -207z" />
<glyph unicode="q" horiz-adv-x="1277" d="M110 522q0 119 28 219t86.5 173.5t146 115t204.5 41.5q137 0 236.5 -57.5t150.5 -155.5h2q0 28 1 61t3 62t4 49t2 23h133q0 -6 -0.5 -26.5t-1.5 -50.5t-1.5 -68.5t-0.5 -79.5v-1298h-141v488q0 26 1 58q1 31 1 59v66h-2q-59 -107 -156.5 -164.5t-250.5 -57.5 q-114 0 -198 41.5t-138.5 114.5t-81.5 172t-27 215zM255 522q0 -100 21.5 -180t65.5 -136t110.5 -86.5t156.5 -30.5q71 0 135.5 23t114 75.5t78.5 136.5t29 206q0 120 -29 203.5t-77.5 134t-113 73.5t-135.5 23q-172 0 -264 -114.5t-92 -327.5z" />
<glyph unicode="r" horiz-adv-x="712" d="M169 1053h129q0 -4 2 -34q1 -31 3 -69q1 -39 2.5 -78t1.5 -59h4q21 65 48 113.5t65 80t86.5 48t111.5 16.5q46 0 73 -11v-116q-18 7 -42.5 9.5t-53.5 2.5q-71 0 -124.5 -35.5t-89 -94t-53 -135t-17.5 -158.5v-533h-142v792q0 35 -0.5 78t-1.5 82t-1.5 67t-0.5 34z" />
<glyph unicode="s" horiz-adv-x="1050" d="M76 250l132 29q14 -60 41.5 -98t68.5 -60t93 -29.5t113 -7.5q64 0 118.5 11.5t95 35.5t63 60.5t22.5 87.5q0 55 -28.5 89t-76.5 57t-111 38.5t-131 30.5q-66 16 -129.5 34.5t-113.5 50t-81 79.5t-31 120q0 137 104 215t304 78q77 0 144 -15t120 -46.5t89 -81.5t49 -119 l-130 -17q-9 50 -34 83.5t-62 53.5t-82 28.5t-94 8.5q-137 0 -206 -47t-69 -127q0 -48 23.5 -79.5t64.5 -52.5t99 -36t128 -31t139.5 -35.5t125 -52.5t89.5 -84t34 -129q0 -73 -29 -130.5t-84.5 -98t-136 -62.5t-183.5 -22q-92 0 -166.5 13.5t-131 44.5t-94.5 83.5 t-56 129.5z" />
<glyph unicode="t" horiz-adv-x="609" d="M44 942v111h142l46 242h93v-242h240v-111h-240v-692q0 -81 33.5 -119t99.5 -38q27 0 59.5 4.5t61.5 12.5v-104q-40 -10 -84 -16.5t-91 -6.5q-109 0 -165 60t-56 183v716h-139z" />
<glyph unicode="u" horiz-adv-x="1251" d="M165 404v649h139v-620q0 -73 15.5 -136.5t50.5 -109t91 -71.5t138 -26q72 0 134 28.5t107 79t71 118.5t26 147v590h140v-817q0 -35 0.5 -75t2.5 -74q1 -34 1.5 -58.5t0.5 -28.5h-126q-1 4 -3 31.5t-4 63t-3.5 72t-1.5 55.5h-4q-65 -125 -160.5 -184t-229.5 -59 q-108 0 -181.5 33.5t-118.5 92t-65 135.5t-20 164z" />
<glyph unicode="v" horiz-adv-x="1057" d="M28 1053h150l273 -734q8 -21 18.5 -49.5t21 -57.5t19.5 -56.5t14 -49.5q6 20 15 47.5t19.5 56.5t21 57t19.5 50l282 736h148l-423 -1053h-166z" />
<glyph unicode="w" horiz-adv-x="1718" d="M36 1053h142l241 -752q8 -25 17 -59t18 -64q10 -35 19 -72q12 40 22 76q9 31 19 64t16 55l252 752h155l242 -752q9 -29 19 -62q9 -34 18 -64q11 -34 20 -69q10 36 20 71q9 29 19 62.5t18 61.5l250 752h139l-361 -1053h-165l-236 725q-9 28 -19.5 63.5t-20.5 69.5 q-12 39 -22 79q-12 -40 -23 -79q-11 -34 -22 -70t-21 -66l-240 -722h-162z" />
<glyph unicode="x" horiz-adv-x="1019" d="M36 0l391 541l-374 512h159l296 -423l293 423h159l-373 -510l397 -543h-160l-316 446l-320 -446h-152z" />
<glyph unicode="y" horiz-adv-x="1038" d="M28 1053h150l219 -590q2 -2 11.5 -27.5t22.5 -60.5q13 -36 29 -76q15 -41 28 -77t22 -60q9 -25 10 -29q1 4 9.5 28.5t21.5 59t29 74.5q15 40 29 75q13 35 22 59.5t10 28.5l223 595h149l-453 -1136q-39 -99 -76.5 -172t-78 -120.5t-86.5 -71t-100 -23.5q-73 0 -122 9v113 q18 -4 40.5 -6.5t40.5 -2.5q80 0 138.5 79t113.5 225l18 53z" />
<glyph unicode="z" horiz-adv-x="966" d="M68 0v112l634 826h-592v115h753v-115l-635 -823h667v-115h-827z" />
<glyph unicode="{" horiz-adv-x="719" d="M63 466v100q107 7 162.5 61t55.5 184v389q0 143 62.5 221.5t193.5 78.5h151v-104h-108q-92 0 -132 -57t-40 -168v-393q0 -103 -53.5 -171.5t-139.5 -87.5v-3q89 -22 141 -89t52 -173v-393q0 -113 40 -169t132 -56h108v-106h-151q-129 0 -192.5 81.5t-63.5 219.5v387 q0 65 -14 110.5t-42 75t-68.5 44.5t-93.5 18z" />
<glyph unicode="|" horiz-adv-x="503" d="M188 -470v1970h129v-1970h-129z" />
<glyph unicode="}" horiz-adv-x="719" d="M30 -364h105q95 0 134 56t39 169v393q0 106 53 173t142 89v3q-42 10 -77.5 32t-62 55.5t-41 76.5t-14.5 95v393q0 111 -39 168t-134 57h-105v104h149q132 0 195 -78.5t63 -221.5v-389q0 -65 14.5 -110.5t42 -73.5t68 -42.5t93.5 -18.5v-100q-53 -3 -93.5 -18t-68 -44.5 t-42 -75t-14.5 -110.5v-387q0 -138 -63.5 -219.5t-194.5 -81.5h-149v106z" />
<glyph unicode="~" d="M63 617v114q49 40 115 63.5t147 23.5q84 0 160 -23.5t151 -50.5q44 -16 97.5 -31t99.5 -15q66 0 129.5 25.5t113.5 68.5v-120q-62 -48 -121.5 -65t-137.5 -17q-68 0 -141.5 21t-146.5 48q-129 49 -218 49q-76 0 -132 -24.5t-116 -66.5z" />
<glyph unicode="&#xa0;" horiz-adv-x="556" d="M0 0z" />
<glyph unicode="&#xa1;" horiz-adv-x="619" d="M228 -401l22 1056h114l23 -1056h-159zM230 877v176h160v-176h-160z" />
<glyph unicode="&#xa2;" horiz-adv-x="1164" d="M110 709q0 123 30 221.5t89 170.5t143.5 113.5t192.5 49.5v190h94v-190q88 -5 156.5 -32t118 -68.5t81 -95.5t44.5 -116l-143 -15q-19 96 -94.5 158.5t-210.5 62.5q-87 0 -154 -30t-113 -86t-69 -137t-23 -183q0 -216 95 -331t266 -115q62 0 115.5 16t94 48t68 77 t37.5 103l138 -12q-9 -62 -39 -120t-81 -103.5t-122.5 -75.5t-164.5 -36v-205h-94v205q-114 8 -199.5 50.5t-142.5 112.5t-85 165.5t-28 207.5z" />
<glyph unicode="&#xa3;" horiz-adv-x="1200" d="M57 672v108h192v296q0 192 109 296t317 104q156 0 253.5 -65.5t139.5 -191.5l-137 -43q-28 87 -90 131t-166 44q-141 0 -212 -68.5t-71 -216.5v-286h432v-108h-432v-196q0 -63 -7 -115.5t-24.5 -95t-46.5 -76.5t-74 -63h622q86 0 132.5 46.5t68.5 122.5l123 -34 q-10 -37 -29 -82t-53.5 -85t-87 -67t-128.5 -27h-825v123q54 28 89.5 57.5t57 69.5t30.5 93.5t9 128.5v200h-192z" />
<glyph unicode="&#xa4;" horiz-adv-x="1138" d="M123 341l108 108q-41 54 -63 118.5t-22 138.5q0 73 22 138t63 120l-106 105l80 80l105 -104q54 41 120.5 65t140.5 24t139 -22.5t119 -64.5l99 99l82 -83l-98 -97q41 -54 64.5 -120.5t23.5 -139.5q0 -75 -24 -141t-65 -120l103 -102l-80 -82l-105 104q-54 -41 -119 -63 t-139 -22q-73 0 -139 22.5t-120 63.5l-107 -105zM244 706q0 -67 25.5 -127t70 -104.5t104.5 -70.5t127 -26q69 0 129 26t104.5 70.5t70 104.5t25.5 127q0 68 -25.5 128t-70 104.5t-104.5 70.5t-129 26q-67 0 -127 -26t-104.5 -70.5t-70 -104.5t-25.5 -128z" />
<glyph unicode="&#xa5;" horiz-adv-x="1214" d="M14 1454h159l433 -692l434 692h158l-467 -726h358v-92h-413v-262h413v-93h-413v-281h-139v281h-412v93h412v262h-412v92h357z" />
<glyph unicode="&#xa6;" horiz-adv-x="503" d="M188 334h129v-804h-129v804zM188 698v802h129v-802h-129z" />
<glyph unicode="&#xa7;" horiz-adv-x="1071" d="M72 36l132 28q11 -59 41 -98.5t72.5 -61t96.5 -30.5t116 -9q63 0 118.5 12t97 37t65.5 64t24 92q0 58 -30 98t-79.5 68t-112.5 47t-131 34q-65 16 -131.5 40t-120 62t-87 92t-33.5 130q0 47 16 90.5t47 80.5t76 65.5t102 42.5q-44 14 -84 37t-70.5 55.5t-47.5 73.5 t-17 92q0 138 102.5 216.5t302.5 78.5q77 0 145.5 -14.5t122 -47t89 -81.5t48.5 -119l-131 -19q-9 50 -34 85t-61.5 55.5t-82.5 29.5t-96 9q-138 0 -208.5 -49.5t-70.5 -129.5q0 -52 26.5 -87.5t70.5 -60.5t101 -42.5t119 -31.5q69 -17 138.5 -40.5t125.5 -61t92 -92 t36 -131.5q0 -48 -14.5 -93t-44.5 -83.5t-74.5 -66.5t-103.5 -41q54 -22 97.5 -48.5t73.5 -60t46.5 -76t16.5 -96.5q0 -147 -112.5 -231.5t-321.5 -84.5q-93 0 -169 13.5t-134 46t-97.5 84t-57.5 128.5zM239 648q0 -51 25 -87.5t67.5 -63.5t100 -46.5t123.5 -36.5 q60 0 112 14t90 41.5t59.5 66.5t21.5 91q0 54 -27.5 93.5t-74 68t-107 47.5t-126.5 33q-63 -3 -112 -21.5t-83.5 -48t-51.5 -68t-17 -83.5z" />
<glyph unicode="&#xa8;" horiz-adv-x="641" d="M54 1196v174h125v-174h-125zM461 1196v174h125v-174h-125z" />
<glyph unicode="&#xa9;" horiz-adv-x="1618" d="M61 730q0 155 58.5 290.5t160 236.5t237.5 160t291 59q154 0 290.5 -59t237 -160t159 -236.5t58.5 -290.5t-58.5 -291t-159 -237t-237 -160t-290.5 -59q-102 0 -197.5 26.5t-179 75.5t-151.5 117t-116.5 151t-75.5 178.5t-27 198.5zM150 730q0 -137 51.5 -257.5 t140.5 -210t209 -141t257 -51.5q136 0 256 51.5t210 141t141.5 210t51.5 257.5q0 136 -51.5 255t-141.5 208t-210 140.5t-256 51.5q-137 0 -257 -51.5t-209 -140.5t-140.5 -208t-51.5 -255zM412 731q0 102 24.5 183.5t74.5 139t125 87.5t175 30q77 0 133 -18t97 -47 t69 -65.5t46 -74.5l-99 -29q-13 27 -34 53.5t-50.5 46.5t-69 32t-90.5 12q-75 0 -130 -25t-91 -71t-53 -110.5t-17 -143.5q0 -78 19 -144t55.5 -113.5t92 -73.5t129.5 -26q53 0 94 14t72 38t52.5 54t36.5 61l101 -29q-23 -44 -53 -85t-72.5 -73.5t-98.5 -51.5t-132 -19 q-103 0 -179.5 33.5t-126.5 93.5t-75 142.5t-25 178.5z" />
<glyph unicode="&#xaa;" horiz-adv-x="920" d="M99 888q0 70 30.5 118t81.5 77t118 42t141 14l193 3v47q0 105 -51.5 154.5t-148.5 49.5q-93 0 -144.5 -38t-63.5 -123l-122 9q8 49 32.5 91t65.5 73.5t99 49.5t136 18q152 0 234 -69.5t82 -205.5v-314q0 -65 15.5 -96.5t60.5 -31.5q13 0 27 3t24 6v-81q-21 -8 -44 -11 t-41 -3q-82 0 -117 44.5t-37 126.5h-7q-43 -81 -119 -129.5t-183 -48.5q-121 0 -191.5 58.5t-70.5 166.5zM222 898q0 -31 9 -57.5t29 -46.5t51.5 -31.5t75.5 -11.5q64 0 115 25t87.5 63t55 84t18.5 86v58l-169 -7q-55 0 -104 -7.5t-86.5 -25.5t-59.5 -49t-22 -80z" />
<glyph unicode="&#xab;" horiz-adv-x="1113" d="M89 524v62l348 384h125v-28l-347 -387l350 -382v-27h-128zM550 524v62l345 384h128v-28l-350 -387l351 -382v-27h-129z" />
<glyph unicode="&#xac;" d="M72 645v116h995l2 -557h-116v441h-881z" />
<glyph unicode="&#xad;" horiz-adv-x="688" d="M90 466v124h506v-124h-506z" />
<glyph unicode="&#xae;" horiz-adv-x="1618" d="M61 730q0 155 58.5 290.5t160 236.5t237.5 160t291 59q154 0 290.5 -59t237 -160t159 -236.5t58.5 -290.5t-58.5 -291t-159 -237t-237 -160t-290.5 -59q-102 0 -197.5 26.5t-179 75.5t-151.5 117t-116.5 151t-75.5 178.5t-27 198.5zM150 730q0 -137 51.5 -257.5 t140.5 -210t209 -141t257 -51.5q136 0 256 51.5t210 141t141.5 210t51.5 257.5q0 136 -51.5 255t-141.5 208t-210 140.5t-256 51.5q-137 0 -257 -51.5t-209 -140.5t-140.5 -208t-51.5 -255zM522 297v861h306q141 0 219 -63t78 -178q0 -109 -56 -173t-148 -82l232 -365h-122 l-214 352h-190v-352h-105zM627 735h208q89 0 135.5 48.5t46.5 132.5q0 77 -53 116t-144 39h-193v-336z" />
<glyph unicode="&#xaf;" horiz-adv-x="1057" d="M-21 1636v76h1098v-76h-1098z" />
<glyph unicode="&#xb0;" horiz-adv-x="805" d="M123 1198q0 58 21.5 109t60 89t90 60t109.5 22t109 -22t89 -60t60 -89t22 -109t-22 -109t-60 -89t-89 -59t-109 -21t-109.5 21t-90 59t-60 89t-21.5 109zM212 1198q0 -40 14.5 -74.5t41 -60.5t61.5 -41.5t75 -15.5q38 0 73 15.5t61 41.5t40.5 60.5t14.5 74.5t-14.5 75 t-40.5 61.5t-61 41.5t-73 15q-40 0 -75 -15t-61.5 -41.5t-41 -61.5t-14.5 -75z" />
<glyph unicode="&#xb1;" horiz-adv-x="1143" d="M72 0v116h995v-116h-995zM72 689v113h440v422h115v-422h440v-113h-440v-423h-115v423h-440z" />
<glyph unicode="&#xb2;" horiz-adv-x="823" d="M125 580v88q26 62 70.5 112.5t96 93.5t104.5 83q53 39 96 79.5t70.5 85t27.5 98.5q0 71 -40 114.5t-123 43.5q-77 0 -125.5 -42t-56.5 -116l-110 5q7 53 29 97t59.5 76.5t89.5 50.5t118 18q131 0 202 -64t71 -175q0 -63 -27.5 -116t-71 -99t-95.5 -87q-53 -41 -103 -81 t-91 -80.5t-61 -85.5h461v-99h-591z" />
<glyph unicode="&#xb3;" horiz-adv-x="809" d="M116 797l110 12q10 -75 59.5 -114.5t144.5 -39.5q86 0 133.5 41.5t47.5 127.5q0 51 -20.5 81t-52 47t-67.5 22.5t-67 5.5h-63v93h59q31 0 64 8t60.5 26.5t45 49t17.5 74.5q0 68 -41.5 107.5t-119.5 39.5t-125 -41.5t-53 -112.5l-113 11q7 58 32 101.5t64 72.5t89 43.5 t107 14.5q68 0 119 -17.5t85.5 -47t51 -71t16.5 -89.5q0 -76 -43 -132.5t-134 -76.5v-4q53 -5 91 -24t62 -47.5t35.5 -64t11.5 -73.5q0 -120 -77 -185.5t-214 -65.5q-85 0 -142.5 19.5t-94.5 51t-54 72.5t-24 85z" />
<glyph unicode="&#xb4;" horiz-adv-x="613" d="M86 1175v20l239 294h161v-25l-307 -289h-93z" />
<glyph unicode="&#xb5;" horiz-adv-x="1260" d="M173 -395v1448h142v-620q0 -73 15.5 -136.5t49.5 -109t89.5 -71.5t136.5 -26q74 0 136 28.5t107 79t70 118.5t25 147v590h142v-817q0 -35 0.5 -75t2.5 -74q1 -34 1.5 -58.5t0.5 -28.5h-127q0 4 -2 31q-2 26 -4 60t-3.5 69t-1.5 54h-4q-113 -235 -363 -235 q-93 0 -164.5 37.5t-106.5 106.5h-4q2 -34 3 -69t1 -64v-385h-142z" />
<glyph unicode="&#xb6;" horiz-adv-x="1096" d="M72 1082q0 87 26.5 156t75.5 116.5t120.5 73.5t162.5 26h552v-89h-136v-1637h-95v1637h-235v-1637h-95v988q-83 0 -152.5 23t-118.5 69t-77 114.5t-28 159.5z" />
<glyph unicode="&#xb7;" horiz-adv-x="448" d="M144 637v186h159v-186h-159z" />
<glyph unicode="&#xb8;" horiz-adv-x="602" d="M133 -361q26 -3 48 -5t41 -2q45 0 76 7.5t49 19.5t26 29t8 37q0 45 -32 68.5t-113 23.5q-15 0 -30.5 -1.5t-30.5 -3.5l70 188h93l-41 -110q95 -2 145.5 -43t50.5 -115q0 -88 -63.5 -137t-207.5 -49q-22 0 -43.5 0.5t-45.5 3.5v89z" />
<glyph unicode="&#xb9;" horiz-adv-x="818" d="M143 580v93h231v676l-209 -131v95l218 141h101v-781h214v-93h-555z" />
<glyph unicode="&#xba;" horiz-adv-x="993" d="M110 1069q0 88 23.5 162t71.5 128t121 84t171 30q103 0 176.5 -30t120 -84t68.5 -128t22 -162q0 -89 -24.5 -163.5t-73.5 -129t-122.5 -84t-170.5 -29.5q-93 0 -164.5 29.5t-120 83t-73.5 128.5t-25 165zM230 1069q0 -83 19 -143t54 -99t83.5 -57t106.5 -18q127 0 198 75 t71 242t-67.5 241t-193.5 74q-129 0 -200 -75.5t-71 -239.5z" />
<glyph unicode="&#xbb;" horiz-adv-x="1113" d="M89 146v27l351 382l-350 387v28h128l348 -384v-62l-348 -378h-129zM550 146v27l348 382l-346 387v28h124l348 -384v-62l-348 -378h-126z" />
<glyph unicode="&#xbc;" horiz-adv-x="1739" d="M129 580v93h231v676l-209 -131v95l218 141h101v-781h214v-93h-555zM436 0l899 1454h121l-898 -1454h-122zM994 204v86l425 586h116v-579h133v-93h-133v-202h-110v202h-431zM1097 297h328v314q0 18 0.5 39t1.5 41t2 38q0 18 1 29q-8 -10 -21.5 -30t-27.5 -42 q-15 -22 -29.5 -42.5t-24.5 -34.5z" />
<glyph unicode="&#xbd;" horiz-adv-x="1838" d="M129 580v93h231v676l-209 -131v95l218 141h101v-781h214v-93h-555zM436 0l899 1454h121l-898 -1454h-122zM1170 2v88q26 62 70.5 112.5t96 93.5t104.5 83q53 39 96 79.5t70.5 85t27.5 98.5q0 71 -40 114.5t-123 43.5q-77 0 -125.5 -42t-56.5 -116l-110 5q7 53 29 97 t59.5 76.5t89.5 50.5t118 18q131 0 202 -64t71 -175q0 -63 -27.5 -116t-71 -99t-95.5 -87q-53 -41 -103 -81t-91 -80.5t-61 -85.5h461v-99h-591z" />
<glyph unicode="&#xbe;" horiz-adv-x="1751" d="M116 797l110 12q10 -75 59.5 -114.5t144.5 -39.5q86 0 133.5 41.5t47.5 127.5q0 51 -20.5 81t-52 47t-67.5 22.5t-67 5.5h-63v93h59q31 0 64 8t60.5 26.5t45 49t17.5 74.5q0 68 -41.5 107.5t-119.5 39.5t-125 -41.5t-53 -112.5l-113 11q7 58 32 101.5t64 72.5t89 43.5 t107 14.5q68 0 119 -17.5t85.5 -47t51 -71t16.5 -89.5q0 -76 -43 -132.5t-134 -76.5v-4q53 -5 91 -24t62 -47.5t35.5 -64t11.5 -73.5q0 -120 -77 -185.5t-214 -65.5q-85 0 -142.5 19.5t-94.5 51t-54 72.5t-24 85zM444 0l899 1454h121l-898 -1454h-122zM1006 204v86l425 586 h116v-579h133v-93h-133v-202h-110v202h-431zM1109 297h328v314q0 18 0.5 39t1.5 41t2 38q0 18 1 29q-8 -10 -21.5 -30t-27.5 -42q-15 -22 -29.5 -42.5t-24.5 -34.5z" />
<glyph unicode="&#xbf;" horiz-adv-x="1178" d="M95 -17q0 96 34.5 161t86 113.5t112.5 86.5q60 38 111.5 80.5t87 96t35.5 132.5h137q-1 -92 -36 -155t-86 -110t-111 -86t-111 -82t-85 -97.5t-34 -132.5q0 -67 23.5 -121.5t66.5 -93t106 -59t143 -20.5q73 0 136 23t110 64.5t77 97.5t36 122l147 -11q-12 -85 -50 -161 t-101.5 -133t-152 -90.5t-202.5 -33.5q-113 0 -202 29t-151 82t-94.5 129t-32.5 169zM550 875v178h158v-178h-158z" />
<glyph unicode="&#xc0;" horiz-adv-x="1311" d="M4 0l565 1454h175l564 -1454h-156l-172 450h-651l-170 -450h-155zM372 570h568l-194 511q-17 44 -33 88.5t-28.5 80t-19.5 58.5q-8 23 -10 26q-1 -5 -8.5 -29t-20 -59.5t-28 -78.5t-32.5 -86zM468 1869v25h162l238 -294v-20h-93z" />
<glyph unicode="&#xc1;" horiz-adv-x="1311" d="M4 0l565 1454h175l564 -1454h-156l-172 450h-651l-170 -450h-155zM372 570h568l-194 511q-17 44 -33 88.5t-28.5 80t-19.5 58.5q-8 23 -10 26q-1 -5 -8.5 -29t-20 -59.5t-28 -78.5t-32.5 -86zM527 1580v20l239 294h161v-25l-307 -289h-93z" />
<glyph unicode="&#xc2;" horiz-adv-x="1311" d="M4 0l565 1454h175l564 -1454h-156l-172 450h-651l-170 -450h-155zM333 1581v14l262 307h139l248 -307v-14h-83l-232 209h-5l-244 -209h-85zM372 570h568l-194 511q-17 44 -33 88.5t-28.5 80t-19.5 58.5q-8 23 -10 26q-1 -5 -8.5 -29t-20 -59.5t-28 -78.5t-32.5 -86z" />
<glyph unicode="&#xc3;" horiz-adv-x="1311" d="M4 0l565 1454h175l564 -1454h-156l-172 450h-651l-170 -450h-155zM304 1581q6 47 17.5 89.5t34 75.5t58 52t90.5 19q45 0 87 -20.5t81 -45.5q38 -25 73.5 -46.5t66.5 -21.5q30 0 49 10.5t32 28.5t20 42.5t12 52.5h91q-7 -45 -18.5 -87.5t-33.5 -75.5t-57.5 -53t-90.5 -20 q-43 0 -85 21.5t-80 48.5q-39 26 -75 47t-69 21q-29 0 -48.5 -11t-32.5 -29t-20.5 -43t-12.5 -55h-89zM372 570h568l-194 511q-17 44 -33 88.5t-28.5 80t-19.5 58.5q-8 23 -10 26q-1 -5 -8.5 -29t-20 -59.5t-28 -78.5t-32.5 -86z" />
<glyph unicode="&#xc4;" horiz-adv-x="1311" d="M4 0l565 1454h175l564 -1454h-156l-172 450h-651l-170 -450h-155zM372 570h568l-194 511q-17 44 -33 88.5t-28.5 80t-19.5 58.5q-8 23 -10 26q-1 -5 -8.5 -29t-20 -59.5t-28 -78.5t-32.5 -86zM387 1580v174h125v-174h-125zM794 1580v174h125v-174h-125z" />
<glyph unicode="&#xc5;" horiz-adv-x="1311" d="M4 0l543 1397q-59 30 -96 88t-37 130q0 50 19.5 94t52.5 77t76.5 52.5t94.5 19.5q50 0 94.5 -19.5t77.5 -52.5t51.5 -77t18.5 -94q0 -73 -36.5 -130.5t-96.5 -87.5l542 -1397h-156l-172 450h-651l-170 -450h-155zM372 570h568l-194 511q-17 44 -33 88.5t-28.5 80 t-19.5 58.5q-8 23 -10 26q-1 -5 -8.5 -29t-20 -59.5t-28 -78.5t-32.5 -86zM498 1615q0 -33 12 -63t34 -52t51 -34t62 -12t62 12t51 34t35 52t13 63q0 34 -13 62t-35 49.5t-51 33.5t-62 12t-62 -12t-51 -33.5t-34 -49.5t-12 -62z" />
<glyph unicode="&#xc6;" horiz-adv-x="1920" d="M-3 0l702 1454h1079v-123h-754v-523h690v-120h-690v-565h795v-123h-942v450h-508l-212 -450h-160zM427 570h450v764h-90q-1 -1 -9 -20q-9 -20 -22 -48q-14 -28 -29 -60t-28 -60q-14 -29 -23 -49t-10 -24z" />
<glyph unicode="&#xc7;" horiz-adv-x="1482" d="M132 734q0 170 40.5 307.5t123 233.5t205.5 148.5t290 52.5q125 0 218 -29t159.5 -77t111.5 -107t74 -120l-132 -50q-24 49 -60.5 95.5t-89 82.5t-122 58t-158.5 22q-133 0 -229 -44t-158.5 -124.5t-92 -195t-29.5 -253.5t32.5 -254.5t97 -199.5t162 -130.5t226.5 -46.5 q93 0 167 27t130.5 70.5t96.5 97.5t64 108l125 -58q-35 -68 -85 -133t-118.5 -116t-156 -82.5t-198.5 -35.5l-34 -91q96 -2 146 -43t50 -115q0 -88 -63 -137t-208 -49q-22 0 -43 0.5t-46 3.5v89q26 -3 48 -5t41 -2q45 0 76 7.5t49 19.5t26 29t8 37q0 45 -31.5 68.5 t-113.5 23.5q-15 0 -30.5 -1.5t-29.5 -3.5l63 170q-154 12 -267.5 72t-187.5 159t-110.5 232t-36.5 289z" />
<glyph unicode="&#xc8;" horiz-adv-x="1300" d="M199 0v1454h959v-123h-811v-523h748v-120h-748v-565h853v-123h-1001zM482 1869v25h162l238 -294v-20h-93z" />
<glyph unicode="&#xc9;" horiz-adv-x="1300" d="M199 0v1454h959v-123h-811v-523h748v-120h-748v-565h853v-123h-1001zM512 1580v20l239 294h161v-25l-307 -289h-93z" />
<glyph unicode="&#xca;" horiz-adv-x="1300" d="M199 0v1454h959v-123h-811v-523h748v-120h-748v-565h853v-123h-1001zM365 1580v14l262 307h139l248 -307v-14h-83l-232 209h-5l-244 -209h-85z" />
<glyph unicode="&#xcb;" horiz-adv-x="1300" d="M199 0v1454h959v-123h-811v-523h748v-120h-748v-565h853v-123h-1001zM419 1580v174h125v-174h-125zM826 1580v174h125v-174h-125z" />
<glyph unicode="&#xcc;" horiz-adv-x="544" d="M-24 1870v25h162l238 -294v-20h-93zM199 0v1454h148v-1454h-148z" />
<glyph unicode="&#xcd;" horiz-adv-x="544" d="M179 1580v20l239 294h161v-25l-307 -289h-93zM199 0v1454h148v-1454h-148z" />
<glyph unicode="&#xce;" horiz-adv-x="544" d="M-51 1581v14l262 307h139l248 -307v-14h-83l-232 209h-5l-244 -209h-85zM199 0v1454h148v-1454h-148z" />
<glyph unicode="&#xcf;" horiz-adv-x="544" d="M10 1580v174h125v-174h-125zM199 0v1454h148v-1454h-148zM417 1580v174h125v-174h-125z" />
<glyph unicode="&#xd0;" horiz-adv-x="1566" d="M13 662v120h186v672h464q169 0 310.5 -41.5t244 -128.5t159 -221.5t56.5 -320.5q0 -182 -54 -320t-149.5 -232.5t-224 -142t-277.5 -47.5h-529v662h-186zM347 125h359q125 0 230.5 39.5t182.5 117t120 193t43 267.5q0 157 -45.5 268.5t-128 182.5t-197.5 103.5t-253 32.5 h-311v-547h399v-120h-399v-537z" />
<glyph unicode="&#xd1;" horiz-adv-x="1650" d="M199 0v1454h169l957 -1285q-1 43 -4 89q-3 40 -3.5 90.5t-0.5 102.5v1003h136v-1454h-176l-949 1277q2 -44 4 -90q1 -40 1.5 -86t0.5 -87v-1014h-135zM471 1580q6 47 17.5 89.5t34 75.5t58 52t90.5 19q45 0 87 -20.5t81 -45.5q38 -25 73.5 -46.5t66.5 -21.5q30 0 49 10.5 t32 28.5t20 42.5t12 52.5h91q-7 -45 -18.5 -87.5t-33.5 -75.5t-57.5 -53t-90.5 -20q-43 0 -85 21.5t-80 48.5q-39 26 -75 47t-69 21q-29 0 -48.5 -11t-32.5 -29t-20.5 -43t-12.5 -55h-89z" />
<glyph unicode="&#xd2;" horiz-adv-x="1633" d="M132 734q0 170 45 307.5t132 233.5t214.5 148.5t293.5 52.5q165 0 293 -53t215.5 -150t132.5 -233.5t45 -305.5q0 -170 -47 -309.5t-135.5 -238t-215.5 -153t-288 -54.5q-171 0 -299 56.5t-214 157t-129 239t-43 302.5zM283 734q0 -139 34.5 -254.5t102.5 -199.5 t167 -130.5t230 -46.5q138 0 238.5 47t165.5 131t96.5 200t31.5 253q0 139 -34 253.5t-101.5 195t-167 124.5t-229.5 44q-133 0 -233 -44t-167 -124.5t-100.5 -195t-33.5 -253.5zM585 1866v25h162l238 -294v-20h-93z" />
<glyph unicode="&#xd3;" horiz-adv-x="1633" d="M132 734q0 170 45 307.5t132 233.5t214.5 148.5t293.5 52.5q165 0 293 -53t215.5 -150t132.5 -233.5t45 -305.5q0 -170 -47 -309.5t-135.5 -238t-215.5 -153t-288 -54.5q-171 0 -299 56.5t-214 157t-129 239t-43 302.5zM283 734q0 -139 34.5 -254.5t102.5 -199.5 t167 -130.5t230 -46.5q138 0 238.5 47t165.5 131t96.5 200t31.5 253q0 139 -34 253.5t-101.5 195t-167 124.5t-229.5 44q-133 0 -233 -44t-167 -124.5t-100.5 -195t-33.5 -253.5zM696 1579v20l239 294h161v-25l-307 -289h-93z" />
<glyph unicode="&#xd4;" horiz-adv-x="1633" d="M132 734q0 170 45 307.5t132 233.5t214.5 148.5t293.5 52.5q165 0 293 -53t215.5 -150t132.5 -233.5t45 -305.5q0 -170 -47 -309.5t-135.5 -238t-215.5 -153t-288 -54.5q-171 0 -299 56.5t-214 157t-129 239t-43 302.5zM283 734q0 -139 34.5 -254.5t102.5 -199.5 t167 -130.5t230 -46.5q138 0 238.5 47t165.5 131t96.5 200t31.5 253q0 139 -34 253.5t-101.5 195t-167 124.5t-229.5 44q-133 0 -233 -44t-167 -124.5t-100.5 -195t-33.5 -253.5zM497 1579v14l262 307h139l248 -307v-14h-83l-232 209h-5l-244 -209h-85z" />
<glyph unicode="&#xd5;" horiz-adv-x="1633" d="M132 734q0 170 45 307.5t132 233.5t214.5 148.5t293.5 52.5q165 0 293 -53t215.5 -150t132.5 -233.5t45 -305.5q0 -170 -47 -309.5t-135.5 -238t-215.5 -153t-288 -54.5q-171 0 -299 56.5t-214 157t-129 239t-43 302.5zM283 734q0 -139 34.5 -254.5t102.5 -199.5 t167 -130.5t230 -46.5q138 0 238.5 47t165.5 131t96.5 200t31.5 253q0 139 -34 253.5t-101.5 195t-167 124.5t-229.5 44q-133 0 -233 -44t-167 -124.5t-100.5 -195t-33.5 -253.5zM469 1580q6 47 17.5 89.5t34 75.5t58 52t90.5 19q45 0 87 -20.5t81 -45.5q38 -25 73.5 -46.5 t66.5 -21.5q30 0 49 10.5t32 28.5t20 42.5t12 52.5h91q-7 -45 -18.5 -87.5t-33.5 -75.5t-57.5 -53t-90.5 -20q-43 0 -85 21.5t-80 48.5q-39 26 -75 47t-69 21q-29 0 -48.5 -11t-32.5 -29t-20.5 -43t-12.5 -55h-89z" />
<glyph unicode="&#xd6;" horiz-adv-x="1633" d="M132 734q0 170 45 307.5t132 233.5t214.5 148.5t293.5 52.5q165 0 293 -53t215.5 -150t132.5 -233.5t45 -305.5q0 -170 -47 -309.5t-135.5 -238t-215.5 -153t-288 -54.5q-171 0 -299 56.5t-214 157t-129 239t-43 302.5zM283 734q0 -139 34.5 -254.5t102.5 -199.5 t167 -130.5t230 -46.5q138 0 238.5 47t165.5 131t96.5 200t31.5 253q0 139 -34 253.5t-101.5 195t-167 124.5t-229.5 44q-133 0 -233 -44t-167 -124.5t-100.5 -195t-33.5 -253.5zM548 1580v174h125v-174h-125zM955 1580v174h125v-174h-125z" />
<glyph unicode="&#xd7;" horiz-adv-x="1138" d="M123 341l363 365l-361 363l80 80l364 -361l359 358l82 -83l-359 -357l363 -363l-80 -82l-364 362l-365 -362z" />
<glyph unicode="&#xd8;" horiz-adv-x="1633" d="M132 734q0 170 45 307.5t132 233.5t214.5 148.5t293.5 52.5q138 0 249.5 -37t196.5 -106l124 144l84 -73l-129 -150q80 -97 120.5 -228t40.5 -292q0 -170 -47 -309.5t-135.5 -238t-215.5 -153t-288 -54.5q-144 0 -255.5 39t-195.5 111l-129 -150l-82 74l135 156 q-80 101 -119 233.5t-39 291.5zM283 734q0 -123 26 -226.5t79 -185.5l782 905q-66 59 -154 91.5t-199 32.5q-133 0 -233 -44t-167 -124.5t-100.5 -195t-33.5 -253.5zM459 236q66 -64 155 -98.5t203 -34.5q138 0 238.5 47t165.5 131t96.5 200t31.5 253q0 249 -105 408z" />
<glyph unicode="&#xd9;" horiz-adv-x="1533" d="M188 520v934h149v-920q0 -113 32.5 -194.5t89.5 -133.5t133 -77.5t163 -25.5q85 0 164 26.5t140.5 80.5t99 138t37.5 199v907h148v-913q0 -144 -46.5 -249.5t-126.5 -174.5t-188 -103.5t-232 -34.5q-118 0 -221 32t-178.5 98t-119.5 168t-44 243zM525 1866v25h162 l238 -294v-20h-93z" />
<glyph unicode="&#xda;" horiz-adv-x="1533" d="M188 520v934h149v-920q0 -113 32.5 -194.5t89.5 -133.5t133 -77.5t163 -25.5q85 0 164 26.5t140.5 80.5t99 138t37.5 199v907h148v-913q0 -144 -46.5 -249.5t-126.5 -174.5t-188 -103.5t-232 -34.5q-118 0 -221 32t-178.5 98t-119.5 168t-44 243zM581 1576v20l239 294 h161v-25l-307 -289h-93z" />
<glyph unicode="&#xdb;" horiz-adv-x="1533" d="M188 520v934h149v-920q0 -113 32.5 -194.5t89.5 -133.5t133 -77.5t163 -25.5q85 0 164 26.5t140.5 80.5t99 138t37.5 199v907h148v-913q0 -144 -46.5 -249.5t-126.5 -174.5t-188 -103.5t-232 -34.5q-118 0 -221 32t-178.5 98t-119.5 168t-44 243zM436 1577v14l262 307 h139l248 -307v-14h-83l-232 209h-5l-244 -209h-85z" />
<glyph unicode="&#xdc;" horiz-adv-x="1533" d="M188 520v934h149v-920q0 -113 32.5 -194.5t89.5 -133.5t133 -77.5t163 -25.5q85 0 164 26.5t140.5 80.5t99 138t37.5 199v907h148v-913q0 -144 -46.5 -249.5t-126.5 -174.5t-188 -103.5t-232 -34.5q-118 0 -221 32t-178.5 98t-119.5 168t-44 243zM493 1580v174h125v-174 h-125zM900 1580v174h125v-174h-125z" />
<glyph unicode="&#xdd;" horiz-adv-x="1214" d="M10 1454h163l433 -692l434 692h162l-522 -817v-637h-147v637zM445 1580v20l239 294h161v-25l-307 -289h-93z" />
<glyph unicode="&#xde;" horiz-adv-x="1331" d="M199 0v1454h148v-268h368q125 0 219 -31t157.5 -87.5t95 -135.5t31.5 -176q0 -89 -30.5 -169.5t-91.5 -141.5t-153.5 -97t-214.5 -36h-381v-312h-148zM347 430h359q93 0 161 24.5t112.5 68t66 103t21.5 129.5q0 148 -92.5 230t-276.5 82h-351v-637z" />
<glyph unicode="&#xdf;" horiz-adv-x="1231" d="M173 0v1036q0 120 34 207.5t95.5 145t147 84.5t187.5 27q94 0 169 -22t127.5 -61t80.5 -93.5t28 -117.5q0 -60 -21 -106t-53.5 -82t-68.5 -65q-37 -29 -69.5 -55.5t-53.5 -53.5t-21 -61q0 -49 29 -86t72 -69t94 -65q51 -34 94 -75.5t72.5 -95t29.5 -128.5q0 -77 -26 -133 t-70.5 -91.5t-104.5 -52.5t-128 -17q-158 0 -274 55v122q54 -33 124.5 -54t142.5 -21q97 0 148.5 45.5t51.5 137.5q0 61 -28.5 105.5t-71.5 80t-93 68.5q-51 32 -94 70t-71.5 85t-28.5 113q0 50 20.5 86.5t52.5 65.5t69 55q36 26 67.5 56.5t52.5 68t21 89.5q0 43 -19 78 t-53.5 60.5t-85 40t-115.5 14.5q-71 0 -129.5 -19t-100.5 -61t-65 -109.5t-23 -165.5v-1036h-142z" />
<glyph unicode="&#xe0;" horiz-adv-x="1225" d="M116 279q0 94 40.5 159t109.5 105.5t160 60t193 20.5l269 4v57q0 150 -73 215t-210 65q-66 0 -117.5 -11t-89 -35.5t-60 -64t-30.5 -95.5l-145 15q10 64 41.5 119t85.5 94.5t133 61.5t183 22q207 0 315 -96.5t108 -279.5v-431q0 -86 21.5 -130t82.5 -44q15 0 34 4t33 7 v-97q-29 -8 -59 -11t-59 -3q-51 0 -86.5 14.5t-57.5 43.5t-33 72.5t-14 98.5h-3q-60 -108 -164.5 -174t-250.5 -66q-82 0 -148.5 20t-113 59t-71 94.5t-24.5 126.5zM262 285q0 -89 55 -139.5t174 -50.5q92 0 165.5 32t125 81.5t79 111t27.5 120.5v89l-240 -7 q-78 -1 -148 -12t-123 -37.5t-84 -72t-31 -115.5zM365 1464v25h162l238 -294v-20h-93z" />
<glyph unicode="&#xe1;" horiz-adv-x="1225" d="M116 279q0 94 40.5 159t109.5 105.5t160 60t193 20.5l269 4v57q0 150 -73 215t-210 65q-66 0 -117.5 -11t-89 -35.5t-60 -64t-30.5 -95.5l-145 15q10 64 41.5 119t85.5 94.5t133 61.5t183 22q207 0 315 -96.5t108 -279.5v-431q0 -86 21.5 -130t82.5 -44q15 0 34 4t33 7 v-97q-29 -8 -59 -11t-59 -3q-51 0 -86.5 14.5t-57.5 43.5t-33 72.5t-14 98.5h-3q-60 -108 -164.5 -174t-250.5 -66q-82 0 -148.5 20t-113 59t-71 94.5t-24.5 126.5zM262 285q0 -89 55 -139.5t174 -50.5q92 0 165.5 32t125 81.5t79 111t27.5 120.5v89l-240 -7 q-78 -1 -148 -12t-123 -37.5t-84 -72t-31 -115.5zM447 1175v20l239 294h161v-25l-307 -289h-93z" />
<glyph unicode="&#xe2;" horiz-adv-x="1225" d="M116 279q0 94 40.5 159t109.5 105.5t160 60t193 20.5l269 4v57q0 150 -73 215t-210 65q-66 0 -117.5 -11t-89 -35.5t-60 -64t-30.5 -95.5l-145 15q10 64 41.5 119t85.5 94.5t133 61.5t183 22q207 0 315 -96.5t108 -279.5v-431q0 -86 21.5 -130t82.5 -44q15 0 34 4t33 7 v-97q-29 -8 -59 -11t-59 -3q-51 0 -86.5 14.5t-57.5 43.5t-33 72.5t-14 98.5h-3q-60 -108 -164.5 -174t-250.5 -66q-82 0 -148.5 20t-113 59t-71 94.5t-24.5 126.5zM262 285q0 -89 55 -139.5t174 -50.5q92 0 165.5 32t125 81.5t79 111t27.5 120.5v89l-240 -7 q-78 -1 -148 -12t-123 -37.5t-84 -72t-31 -115.5zM295 1175v14l262 307h139l248 -307v-14h-83l-232 209h-5l-244 -209h-85z" />
<glyph unicode="&#xe3;" horiz-adv-x="1225" d="M116 279q0 94 40.5 159t109.5 105.5t160 60t193 20.5l269 4v57q0 150 -73 215t-210 65q-66 0 -117.5 -11t-89 -35.5t-60 -64t-30.5 -95.5l-145 15q10 64 41.5 119t85.5 94.5t133 61.5t183 22q207 0 315 -96.5t108 -279.5v-431q0 -86 21.5 -130t82.5 -44q15 0 34 4t33 7 v-97q-29 -8 -59 -11t-59 -3q-51 0 -86.5 14.5t-57.5 43.5t-33 72.5t-14 98.5h-3q-60 -108 -164.5 -174t-250.5 -66q-82 0 -148.5 20t-113 59t-71 94.5t-24.5 126.5zM261 1170q6 47 17.5 89.5t34 75.5t58 52t90.5 19q45 0 87 -20.5t81 -45.5q38 -25 73.5 -46.5t66.5 -21.5 q30 0 49 10.5t32 28.5t20 42.5t12 52.5h91q-7 -45 -18.5 -87.5t-33.5 -75.5t-57.5 -53t-90.5 -20q-43 0 -85 21.5t-80 48.5q-39 26 -75 47t-69 21q-29 0 -48.5 -11t-32.5 -29t-20.5 -43t-12.5 -55h-89zM262 285q0 -89 55 -139.5t174 -50.5q92 0 165.5 32t125 81.5t79 111 t27.5 120.5v89l-240 -7q-78 -1 -148 -12t-123 -37.5t-84 -72t-31 -115.5z" />
<glyph unicode="&#xe4;" horiz-adv-x="1225" d="M116 279q0 94 40.5 159t109.5 105.5t160 60t193 20.5l269 4v57q0 150 -73 215t-210 65q-66 0 -117.5 -11t-89 -35.5t-60 -64t-30.5 -95.5l-145 15q10 64 41.5 119t85.5 94.5t133 61.5t183 22q207 0 315 -96.5t108 -279.5v-431q0 -86 21.5 -130t82.5 -44q15 0 34 4t33 7 v-97q-29 -8 -59 -11t-59 -3q-51 0 -86.5 14.5t-57.5 43.5t-33 72.5t-14 98.5h-3q-60 -108 -164.5 -174t-250.5 -66q-82 0 -148.5 20t-113 59t-71 94.5t-24.5 126.5zM262 285q0 -89 55 -139.5t174 -50.5q92 0 165.5 32t125 81.5t79 111t27.5 120.5v89l-240 -7 q-78 -1 -148 -12t-123 -37.5t-84 -72t-31 -115.5zM352 1196v174h125v-174h-125zM759 1196v174h125v-174h-125z" />
<glyph unicode="&#xe5;" horiz-adv-x="1225" d="M116 279q0 94 40.5 159t109.5 105.5t160 60t193 20.5l269 4v57q0 150 -73 215t-210 65q-66 0 -117.5 -11t-89 -35.5t-60 -64t-30.5 -95.5l-145 15q10 64 41.5 119t85.5 94.5t133 61.5t183 22q207 0 315 -96.5t108 -279.5v-431q0 -86 21.5 -130t82.5 -44q15 0 34 4t33 7 v-97q-29 -8 -59 -11t-59 -3q-51 0 -86.5 14.5t-57.5 43.5t-33 72.5t-14 98.5h-3q-60 -108 -164.5 -174t-250.5 -66q-82 0 -148.5 20t-113 59t-71 94.5t-24.5 126.5zM262 285q0 -89 55 -139.5t174 -50.5q92 0 165.5 32t125 81.5t79 111t27.5 120.5v89l-240 -7 q-78 -1 -148 -12t-123 -37.5t-84 -72t-31 -115.5zM381 1393q0 51 19.5 94.5t52.5 76.5t77 52.5t94 19.5t94.5 -19.5t77.5 -52.5t51.5 -76.5t18.5 -94.5q0 -50 -18.5 -94.5t-51.5 -77.5t-77.5 -52.5t-94.5 -19.5t-94 19.5t-77 52.5t-52.5 77.5t-19.5 94.5zM465 1393 q0 -33 12.5 -63t34.5 -52t51 -34t61 -12q33 0 62 12t51 34t35 52t13 63q0 34 -13 62t-35 49.5t-51 34t-62 12.5q-32 0 -61 -12.5t-51 -34t-34.5 -49.5t-12.5 -62z" />
<glyph unicode="&#xe6;" horiz-adv-x="1974" d="M116 279q0 94 40.5 157t109.5 101t160 55.5t193 18.5l269 4v69q0 148 -73 221t-210 73q-133 0 -207 -52.5t-90 -166.5l-145 15q10 64 40 119t84.5 94.5t132.5 61.5t182 22q149 0 244.5 -56.5t131.5 -165.5q33 60 79 102t100 68.5t114 39t120 12.5q125 0 214.5 -40 t147.5 -112.5t85 -171.5t27 -218v-26h-834q0 -86 21 -163.5t65.5 -135t114.5 -91t165 -33.5q123 0 205.5 56t115.5 145l133 -23q-18 -44 -49.5 -93.5t-85 -90t-131.5 -68t-188 -27.5q-157 0 -274 72.5t-171 212.5q-76 -143 -191.5 -214t-278.5 -71q-83 0 -151 20t-115.5 59 t-73.5 94.5t-26 126.5zM262 285q0 -44 16 -81.5t47.5 -64.5t78 -41.5t106.5 -14.5q91 0 162 32.5t118.5 84.5t72.5 114.5t25 121.5v93l-240 -7q-78 -1 -148 -12t-123 -37.5t-84 -72t-31 -115.5zM1033 601h693q-5 84 -27.5 152.5t-64 117.5t-102.5 75.5t-147 26.5 q-67 0 -128.5 -21t-110 -65.5t-79 -115.5t-34.5 -170z" />
<glyph unicode="&#xe7;" horiz-adv-x="1164" d="M110 519q0 129 34 231.5t99 173.5t158.5 109t213.5 38q98 0 175 -24.5t132 -67t89.5 -100t47.5 -123.5l-143 -14q-19 96 -94.5 159t-210.5 63q-87 0 -154 -30t-113 -86t-69 -136t-23 -182q0 -217 95 -329t266 -112q136 0 213 64.5t99 174.5l135 -25q-13 -60 -43.5 -115.5 t-81 -99.5t-119.5 -72t-158 -34l-34 -92q96 -2 146 -43t50 -115q0 -88 -63 -137t-207 -49q-22 0 -43.5 0.5t-45.5 3.5v89q25 -3 47 -5t42 -2q45 0 76 7.5t49 19.5t25.5 29t7.5 37q0 45 -31.5 68.5t-112.5 23.5q-16 0 -31.5 -1.5t-29.5 -3.5l62 170q-115 6 -200.5 49 t-142.5 113.5t-84.5 166t-27.5 208.5z" />
<glyph unicode="&#xe8;" horiz-adv-x="1200" d="M110 533q0 151 43.5 254t114.5 166.5t161.5 90.5t183.5 27q125 0 216 -40t149.5 -112.5t86.5 -171.5t28 -218v-32h-838q0 -87 21.5 -162.5t66.5 -130t114 -86.5t165 -32q122 0 205.5 53t116.5 142l132 -23q-17 -44 -50 -93.5t-87 -90t-132.5 -68t-189.5 -27.5 q-116 0 -210 35.5t-159.5 106t-101.5 173.5t-36 239zM258 601h695q-6 84 -28.5 151t-64 114t-102.5 72.5t-145 25.5q-67 0 -129.5 -19.5t-111 -63t-79.5 -112.5t-35 -168zM367 1464v25h162l238 -294v-20h-93z" />
<glyph unicode="&#xe9;" horiz-adv-x="1200" d="M110 533q0 151 43.5 254t114.5 166.5t161.5 90.5t183.5 27q125 0 216 -40t149.5 -112.5t86.5 -171.5t28 -218v-32h-838q0 -87 21.5 -162.5t66.5 -130t114 -86.5t165 -32q122 0 205.5 53t116.5 142l132 -23q-17 -44 -50 -93.5t-87 -90t-132.5 -68t-189.5 -27.5 q-116 0 -210 35.5t-159.5 106t-101.5 173.5t-36 239zM258 601h695q-6 84 -28.5 151t-64 114t-102.5 72.5t-145 25.5q-67 0 -129.5 -19.5t-111 -63t-79.5 -112.5t-35 -168zM458 1175v20l239 294h161v-25l-307 -289h-93z" />
<glyph unicode="&#xea;" horiz-adv-x="1200" d="M110 533q0 151 43.5 254t114.5 166.5t161.5 90.5t183.5 27q125 0 216 -40t149.5 -112.5t86.5 -171.5t28 -218v-32h-838q0 -87 21.5 -162.5t66.5 -130t114 -86.5t165 -32q122 0 205.5 53t116.5 142l132 -23q-17 -44 -50 -93.5t-87 -90t-132.5 -68t-189.5 -27.5 q-116 0 -210 35.5t-159.5 106t-101.5 173.5t-36 239zM258 601h695q-6 84 -28.5 151t-64 114t-102.5 72.5t-145 25.5q-67 0 -129.5 -19.5t-111 -63t-79.5 -112.5t-35 -168zM285 1162v14l262 307h139l248 -307v-14h-83l-232 209h-5l-244 -209h-85z" />
<glyph unicode="&#xeb;" horiz-adv-x="1200" d="M110 533q0 151 43.5 254t114.5 166.5t161.5 90.5t183.5 27q125 0 216 -40t149.5 -112.5t86.5 -171.5t28 -218v-32h-838q0 -87 21.5 -162.5t66.5 -130t114 -86.5t165 -32q122 0 205.5 53t116.5 142l132 -23q-17 -44 -50 -93.5t-87 -90t-132.5 -68t-189.5 -27.5 q-116 0 -210 35.5t-159.5 106t-101.5 173.5t-36 239zM258 601h695q-6 84 -28.5 151t-64 114t-102.5 72.5t-145 25.5q-67 0 -129.5 -19.5t-111 -63t-79.5 -112.5t-35 -168zM349 1196v174h125v-174h-125zM756 1196v174h125v-174h-125z" />
<glyph unicode="&#xec;" horiz-adv-x="488" d="M-16 1464v25h162l238 -294v-20h-93zM173 0v1053h142v-1053h-142z" />
<glyph unicode="&#xed;" horiz-adv-x="488" d="M101 1175v20l239 294h161v-25l-307 -289h-93zM173 0v1053h142v-1053h-142z" />
<glyph unicode="&#xee;" horiz-adv-x="488" d="M-79 1175v14l262 307h139l248 -307v-14h-83l-232 209h-5l-244 -209h-85zM173 0v1053h142v-1053h-142z" />
<glyph unicode="&#xef;" horiz-adv-x="488" d="M-17 1196v174h125v-174h-125zM173 0v1053h142v-1053h-142zM390 1196v174h125v-174h-125z" />
<glyph unicode="&#xf0;" horiz-adv-x="1256" d="M110 497q0 111 31.5 205t95.5 163t161 108.5t229 39.5q84 0 151 -19t116 -52q-50 94 -113.5 178t-148.5 161l-264 -119l-35 84l223 101q-54 42 -113.5 81t-125.5 72h173q92 -40 178 -107l262 116l36 -82l-218 -98q88 -79 160 -170.5t124.5 -194t82 -214t31.5 -230.5v-4 q0 -117 -33 -216t-99 -170.5t-164 -111t-228 -39.5q-124 0 -220 38t-160.5 106.5t-98 164t-33.5 209.5zM255 497q0 -105 26.5 -181.5t75 -127t115 -75t147.5 -24.5q181 0 280 99.5t99 308.5t-92.5 307t-273.5 98q-183 0 -280 -101t-97 -304z" />
<glyph unicode="&#xf1;" horiz-adv-x="1251" d="M169 1053h129q0 -4 2 -32q1 -29 2.5 -64.5l3 -71t1.5 -54.5h4q66 122 161.5 181t229.5 59q107 0 180.5 -33.5t118.5 -91t65 -134.5t20 -163v-649h-139v617q0 74 -15.5 137.5t-50.5 110t-91 72t-137 25.5q-74 0 -136 -29t-107 -79t-70 -118t-25 -146v-590h-142v817 q0 34 -0.5 73.5t-1.5 73.5t-1.5 58.5t-0.5 30.5zM291 1175q6 47 17.5 89.5t34 75.5t58 52t90.5 19q45 0 87 -20.5t81 -45.5q38 -25 73.5 -46.5t66.5 -21.5q30 0 49 10.5t32 28.5t20 42.5t12 52.5h91q-7 -45 -18.5 -87.5t-33.5 -75.5t-57.5 -53t-90.5 -20q-43 0 -85 21.5 t-80 48.5q-39 26 -75 47t-69 21q-29 0 -48.5 -11t-32.5 -29t-20.5 -43t-12.5 -55h-89z" />
<glyph unicode="&#xf2;" horiz-adv-x="1253" d="M110 526q0 118 31.5 217t95.5 172t161 114.5t229 41.5q139 0 238 -41t160.5 -113.5t91 -172t29.5 -218.5q0 -120 -33 -220t-99 -172.5t-164 -113.5t-228 -41q-124 0 -220 40t-160.5 113t-98 173.5t-33.5 220.5zM255 526q0 -112 26.5 -194t75 -136t115 -80.5t147.5 -26.5 q181 0 280 106t99 331t-92.5 331.5t-273.5 106.5q-182 0 -279.5 -109t-97.5 -329zM423 1464v25h162l238 -294v-20h-93z" />
<glyph unicode="&#xf3;" horiz-adv-x="1253" d="M110 526q0 118 31.5 217t95.5 172t161 114.5t229 41.5q139 0 238 -41t160.5 -113.5t91 -172t29.5 -218.5q0 -120 -33 -220t-99 -172.5t-164 -113.5t-228 -41q-124 0 -220 40t-160.5 113t-98 173.5t-33.5 220.5zM255 526q0 -112 26.5 -194t75 -136t115 -80.5t147.5 -26.5 q181 0 280 106t99 331t-92.5 331.5t-273.5 106.5q-182 0 -279.5 -109t-97.5 -329zM478 1175v20l239 294h161v-25l-307 -289h-93z" />
<glyph unicode="&#xf4;" horiz-adv-x="1253" d="M110 526q0 118 31.5 217t95.5 172t161 114.5t229 41.5q139 0 238 -41t160.5 -113.5t91 -172t29.5 -218.5q0 -120 -33 -220t-99 -172.5t-164 -113.5t-228 -41q-124 0 -220 40t-160.5 113t-98 173.5t-33.5 220.5zM255 526q0 -112 26.5 -194t75 -136t115 -80.5t147.5 -26.5 q181 0 280 106t99 331t-92.5 331.5t-273.5 106.5q-182 0 -279.5 -109t-97.5 -329zM310 1175v14l262 307h139l248 -307v-14h-83l-232 209h-5l-244 -209h-85z" />
<glyph unicode="&#xf5;" horiz-adv-x="1253" d="M110 526q0 118 31.5 217t95.5 172t161 114.5t229 41.5q139 0 238 -41t160.5 -113.5t91 -172t29.5 -218.5q0 -120 -33 -220t-99 -172.5t-164 -113.5t-228 -41q-124 0 -220 40t-160.5 113t-98 173.5t-33.5 220.5zM255 526q0 -112 26.5 -194t75 -136t115 -80.5t147.5 -26.5 q181 0 280 106t99 331t-92.5 331.5t-273.5 106.5q-182 0 -279.5 -109t-97.5 -329zM279 1175q6 47 17.5 89.5t34 75.5t58 52t90.5 19q45 0 87 -20.5t81 -45.5q38 -25 73.5 -46.5t66.5 -21.5q30 0 49 10.5t32 28.5t20 42.5t12 52.5h91q-7 -45 -18.5 -87.5t-33.5 -75.5 t-57.5 -53t-90.5 -20q-43 0 -85 21.5t-80 48.5q-39 26 -75 47t-69 21q-29 0 -48.5 -11t-32.5 -29t-20.5 -43t-12.5 -55h-89z" />
<glyph unicode="&#xf6;" horiz-adv-x="1253" d="M110 526q0 118 31.5 217t95.5 172t161 114.5t229 41.5q139 0 238 -41t160.5 -113.5t91 -172t29.5 -218.5q0 -120 -33 -220t-99 -172.5t-164 -113.5t-228 -41q-124 0 -220 40t-160.5 113t-98 173.5t-33.5 220.5zM255 526q0 -112 26.5 -194t75 -136t115 -80.5t147.5 -26.5 q181 0 280 106t99 331t-92.5 331.5t-273.5 106.5q-182 0 -279.5 -109t-97.5 -329zM369 1196v174h125v-174h-125zM776 1196v174h125v-174h-125z" />
<glyph unicode="&#xf7;" d="M72 645v116h995v-116h-995zM498 255v164h143v-164h-143zM498 987v165h143v-165h-143z" />
<glyph unicode="&#xf8;" horiz-adv-x="1253" d="M110 526q0 118 31.5 217t95.5 172t161 114.5t229 41.5q209 0 330 -94l100 116l68 -60l-101 -116q62 -73 92 -172t30 -219t-33 -220.5t-99 -173.5t-164 -113t-228 -40q-100 0 -180.5 26.5t-140.5 74.5l-108 -123l-67 60l106 125q-60 71 -91 168.5t-31 215.5zM255 526 q0 -91 19.5 -160t54.5 -118l544 640q-91 76 -241 76q-182 0 -279.5 -109t-97.5 -329zM383 172q45 -43 104.5 -63t131.5 -20q181 0 280 106t99 331q0 186 -72 285z" />
<glyph unicode="&#xf9;" horiz-adv-x="1251" d="M165 404v649h139v-620q0 -73 15.5 -136.5t50.5 -109t91 -71.5t138 -26q72 0 134 28.5t107 79t71 118.5t26 147v590h140v-817q0 -35 0.5 -75t2.5 -74q1 -34 1.5 -58.5t0.5 -28.5h-126q-1 4 -3 31.5t-4 63t-3.5 72t-1.5 55.5h-4q-65 -125 -160.5 -184t-229.5 -59 q-108 0 -181.5 33.5t-118.5 92t-65 135.5t-20 164zM406 1464v25h162l238 -294v-20h-93z" />
<glyph unicode="&#xfa;" horiz-adv-x="1251" d="M165 404v649h139v-620q0 -73 15.5 -136.5t50.5 -109t91 -71.5t138 -26q72 0 134 28.5t107 79t71 118.5t26 147v590h140v-817q0 -35 0.5 -75t2.5 -74q1 -34 1.5 -58.5t0.5 -28.5h-126q-1 4 -3 31.5t-4 63t-3.5 72t-1.5 55.5h-4q-65 -125 -160.5 -184t-229.5 -59 q-108 0 -181.5 33.5t-118.5 92t-65 135.5t-20 164zM445 1175v20l239 294h161v-25l-307 -289h-93z" />
<glyph unicode="&#xfb;" horiz-adv-x="1251" d="M165 404v649h139v-620q0 -73 15.5 -136.5t50.5 -109t91 -71.5t138 -26q72 0 134 28.5t107 79t71 118.5t26 147v590h140v-817q0 -35 0.5 -75t2.5 -74q1 -34 1.5 -58.5t0.5 -28.5h-126q-1 4 -3 31.5t-4 63t-3.5 72t-1.5 55.5h-4q-65 -125 -160.5 -184t-229.5 -59 q-108 0 -181.5 33.5t-118.5 92t-65 135.5t-20 164zM297 1175v14l262 307h139l248 -307v-14h-83l-232 209h-5l-244 -209h-85z" />
<glyph unicode="&#xfc;" horiz-adv-x="1251" d="M165 404v649h139v-620q0 -73 15.5 -136.5t50.5 -109t91 -71.5t138 -26q72 0 134 28.5t107 79t71 118.5t26 147v590h140v-817q0 -35 0.5 -75t2.5 -74q1 -34 1.5 -58.5t0.5 -28.5h-126q-1 4 -3 31.5t-4 63t-3.5 72t-1.5 55.5h-4q-65 -125 -160.5 -184t-229.5 -59 q-108 0 -181.5 33.5t-118.5 92t-65 135.5t-20 164zM362 1196v174h125v-174h-125zM769 1196v174h125v-174h-125z" />
<glyph unicode="&#xfd;" horiz-adv-x="1038" d="M28 1053h150l219 -590q2 -2 11.5 -27.5t22.5 -60.5q13 -36 29 -76q15 -41 28 -77t22 -60q9 -25 10 -29q1 4 9.5 28.5t21.5 59t29 74.5q15 40 29 75q13 35 22 59.5t10 28.5l223 595h149l-453 -1136q-39 -99 -76.5 -172t-78 -120.5t-86.5 -71t-100 -23.5q-73 0 -122 9v113 q18 -4 40.5 -6.5t40.5 -2.5q80 0 138.5 79t113.5 225l18 53zM352 1175v20l239 294h161v-25l-307 -289h-93z" />
<glyph unicode="&#xfe;" horiz-adv-x="1277" d="M173 -470v1970h142v-450q0 -23 -1 -56q-1 -34 -1 -65q-1 -31 -1 -53q-1 -23 -1 -25h4q59 107 157 164.5t250 57.5q115 0 199 -41t139 -114t82 -172.5t27 -215.5q0 -117 -28.5 -218.5t-86.5 -175t-146 -115.5t-206 -42q-133 0 -233.5 57t-153.5 157h-4q0 -1 1 -19 q0 -18 1 -46q0 -29 1 -62q1 -34 1 -66v-470h-142zM311 522q0 -120 29 -203t77.5 -134t113 -73.5t135.5 -22.5q172 0 264.5 114t92.5 327q0 101 -22 181t-66 136t-111 86.5t-156 30.5q-71 0 -135.5 -23.5t-113.5 -75.5t-78.5 -136t-29.5 -207z" />
<glyph unicode="&#xff;" horiz-adv-x="1038" d="M28 1053h150l219 -590q2 -2 11.5 -27.5t22.5 -60.5q13 -36 29 -76q15 -41 28 -77t22 -60q9 -25 10 -29q1 4 9.5 28.5t21.5 59t29 74.5q15 40 29 75q13 35 22 59.5t10 28.5l223 595h149l-453 -1136q-39 -99 -76.5 -172t-78 -120.5t-86.5 -71t-100 -23.5q-73 0 -122 9v113 q18 -4 40.5 -6.5t40.5 -2.5q80 0 138.5 79t113.5 225l18 53zM268 1196v174h125v-174h-125zM675 1196v174h125v-174h-125z" />
<glyph unicode="&#x152;" horiz-adv-x="2103" d="M132 734q0 170 45 307.5t132 233.5t214.5 148.5t293.5 52.5q104 0 196 -22h949v-123h-813v-523h749v-120h-749v-565h856v-123h-995q-44 -10 -93.5 -15.5t-99.5 -5.5q-171 0 -299 56.5t-214 157t-129 239t-43 302.5zM283 734q0 -139 34.5 -254.5t102.5 -199.5t167 -130.5 t230 -46.5q50 0 95.5 6.5t89.5 19.5v1196q-44 13 -89.5 19.5t-95.5 6.5q-133 0 -233 -44t-167 -124.5t-100.5 -195t-33.5 -253.5z" />
<glyph unicode="&#x153;" horiz-adv-x="2086" d="M110 526q0 118 31.5 217t95.5 172t161 114.5t229 41.5q94 0 167 -20t126.5 -57t89.5 -88t57 -111q23 62 63.5 112.5t96 87t124.5 56.5t149 20q125 0 215.5 -40t149 -112.5t86.5 -171.5t28 -218v-26h-837q0 -86 21 -163.5t65.5 -135t113.5 -91t165 -33.5q122 0 206 56 t118 145l131 -23q-18 -44 -50 -93.5t-85 -90t-131 -68t-189 -27.5q-85 0 -156 21.5t-126.5 59.5t-94.5 91t-61 115q-20 -62 -59 -115t-95 -91t-129 -59.5t-164 -21.5q-124 0 -220 40t-160.5 113t-98 173.5t-33.5 220.5zM255 526q0 -112 26.5 -194t75 -136t115 -80.5 t147.5 -26.5q181 0 280 106t99 331t-92.5 331.5t-273.5 106.5q-182 0 -279.5 -109t-97.5 -329zM1143 601h697q-7 84 -30 152.5t-64.5 117.5t-103.5 75.5t-146 26.5q-67 0 -129.5 -21t-111 -65.5t-78.5 -115.5t-34 -170z" />
<glyph unicode="&#x178;" horiz-adv-x="1214" d="M10 1454h163l433 -692l434 692h162l-522 -817v-637h-147v637zM349 1580v174h125v-174h-125zM756 1580v174h125v-174h-125z" />
<glyph unicode="&#x2c6;" horiz-adv-x="651" d="M0 1175v14l262 307h139l248 -307v-14h-83l-232 209h-5l-244 -209h-85z" />
<glyph unicode="&#x2dc;" horiz-adv-x="655" d="M-28 1175q6 47 17.5 89.5t34 75.5t58 52t90.5 19q45 0 87 -20.5t81 -45.5q38 -25 73.5 -46.5t66.5 -21.5q30 0 49 10.5t32 28.5t20 42.5t12 52.5h91q-7 -45 -18.5 -87.5t-33.5 -75.5t-57.5 -53t-90.5 -20q-43 0 -85 21.5t-80 48.5q-39 26 -75 47t-69 21q-29 0 -48.5 -11 t-32.5 -29t-20.5 -43t-12.5 -55h-89z" />
<glyph unicode="&#x2000;" horiz-adv-x="951" />
<glyph unicode="&#x2001;" horiz-adv-x="1902" />
<glyph unicode="&#x2002;" horiz-adv-x="951" />
<glyph unicode="&#x2003;" horiz-adv-x="1902" />
<glyph unicode="&#x2004;" horiz-adv-x="634" />
<glyph unicode="&#x2005;" horiz-adv-x="475" />
<glyph unicode="&#x2006;" horiz-adv-x="317" />
<glyph unicode="&#x2007;" horiz-adv-x="317" />
<glyph unicode="&#x2008;" horiz-adv-x="237" />
<glyph unicode="&#x2009;" horiz-adv-x="380" />
<glyph unicode="&#x200a;" horiz-adv-x="105" />
<glyph unicode="&#x2010;" horiz-adv-x="688" d="M90 466v124h506v-124h-506z" />
<glyph unicode="&#x2011;" horiz-adv-x="688" d="M90 466v124h506v-124h-506z" />
<glyph unicode="&#x2012;" horiz-adv-x="688" d="M90 466v124h506v-124h-506z" />
<glyph unicode="&#x2013;" horiz-adv-x="1036" d="M0 473v113h1036v-113h-1036z" />
<glyph unicode="&#x2014;" horiz-adv-x="2113" d="M0 473v113h2113v-113h-2113z" />
<glyph unicode="&#x2018;" horiz-adv-x="343" d="M89 1038v126q0 49 4 87.5t11.5 72.5t20.5 66t32 64h97q-41 -66 -61 -125.5t-20 -119.5h75v-171h-159z" />
<glyph unicode="&#x2019;" horiz-adv-x="343" d="M89 1038q80 124 80 243h-74v173h159v-127q0 -47 -4 -86.5t-12 -73.5t-21 -66t-31 -63h-97z" />
<glyph unicode="&#x201a;" horiz-adv-x="448" d="M137 -244q81 125 81 244h-72v173h158v-127q0 -49 -3.5 -88t-12.5 -73.5t-22 -65.5t-31 -63h-98z" />
<glyph unicode="&#x201c;" horiz-adv-x="641" d="M89 1038v126q0 49 4 87.5t11.5 72.5t20.5 66t32 64h97q-41 -66 -61 -125.5t-20 -119.5h75v-171h-159zM384 1038v126q0 49 4 87.5t12.5 72.5t21.5 66t29 64h101q-41 -66 -60.5 -125.5t-19.5 -119.5h71v-171h-159z" />
<glyph unicode="&#x201d;" horiz-adv-x="641" d="M89 1038q80 124 80 243h-74v173h159v-127q0 -47 -4 -86.5t-12 -73.5t-21 -66t-31 -63h-97zM384 1038q42 64 62 124t20 119h-73v173h159v-127q0 -47 -4 -86.5t-13 -73.5t-21.5 -66t-31.5 -63h-98z" />
<glyph unicode="&#x201e;" horiz-adv-x="641" d="M89 -244q80 125 80 244h-74v173h159v-127q0 -49 -4 -88t-12 -73.5t-21 -65.5t-31 -63h-97zM384 -244q82 125 82 244h-73v173h159v-127q0 -49 -4 -88t-13 -73.5t-21.5 -65.5t-31.5 -63h-98z" />
<glyph unicode="&#x2022;" horiz-adv-x="900" d="M172 706q0 56 21.5 107t59 88.5t88 59.5t107.5 22q58 0 109.5 -22t89.5 -59.5t60.5 -88.5t22.5 -107q0 -58 -22.5 -109t-60.5 -89t-89.5 -60t-109.5 -22q-57 0 -107.5 22t-88 60t-59 89t-21.5 109z" />
<glyph unicode="&#x2026;" horiz-adv-x="1347" d="M146 0v186h158v-186h-158zM596 0v186h156v-186h-156zM1045 0v186h157v-186h-157z" />
<glyph unicode="&#x202f;" horiz-adv-x="380" />
<glyph unicode="&#x2039;" horiz-adv-x="655" d="M89 524v62l348 384h125v-28l-347 -387l350 -382v-27h-128z" />
<glyph unicode="&#x203a;" horiz-adv-x="655" d="M89 146v27l351 382l-350 387v28h128l347 -384v-62l-347 -378h-129z" />
<glyph unicode="&#x205f;" horiz-adv-x="475" />
<glyph unicode="&#x20ac;" horiz-adv-x="1262" d="M80 530v93h124q-4 53 -4 108q0 60 4 118h-124v91h133q17 119 57 217.5t109 169.5t168 110t235 39q135 0 243 -38t179 -93l-68 -99q-77 54 -168 82.5t-188 28.5q-100 0 -174.5 -27.5t-125 -80.5t-80.5 -130.5t-44 -178.5h596v-91h-605q-3 -29 -3 -58v-60q0 -29 1 -55.5 t2 -52.5h605v-93h-596q30 -223 135 -328t295 -105q63 0 117 10t100.5 27.5t86 39t71.5 44.5l59 -101q-42 -29 -88.5 -54.5t-100 -44t-116 -29t-137.5 -10.5q-127 0 -224 37.5t-167 108t-113 173t-61 232.5h-133z" />
<glyph unicode="&#x2122;" horiz-adv-x="1602" d="M68 1370v84h545v-84h-226v-578h-97v578h-222zM722 792v662h141l204 -516q1 -1 3 -4q1 -4 3 -6q3 -4 4 -8q19 45 34 81q13 31 23 57t12 28l152 368h135v-662h-95v370v167l-5 -11q-3 -3 -3 -8q-1 -5 -3 -7l-214 -511h-82l-143 360q-2 3 -12 30t-23 60q-15 39 -33 87 q0 -4 -1 -9q-2 -11 -2 -16v-512h-95z" />
<glyph unicode="&#x25fc;" horiz-adv-x="1055" d="M0 0v1055h1055v-1055h-1055z" />
</font>
</defs>
</svg>
